<svg width="283" height="132" viewBox="0 0 283 132" fill="none" xmlns="http://www.w3.org/2000/svg">
<rect x="1" y="1" width="281" height="130" rx="3" fill="#ECEFF1" stroke="#BBC7CD" stroke-width="2"/>
<rect x="24" y="16" width="36" height="3" rx="1.5" fill="#263238"/>
<rect x="130" y="24" width="12" height="12" rx="6" fill="#BBC7CD"/>
<rect x="150" y="25" width="34" height="3" rx="1.5" fill="#263238"/>
<rect x="150" y="36" width="90" height="3" rx="1.5" fill="#BBC7CD"/>
<rect x="150" y="47" width="75" height="3" rx="1.5" fill="#BBC7CD"/>
<rect x="130" y="75" width="12" height="12" rx="6" fill="#BBC7CD"/>
<rect x="150" y="76" width="29" height="3" rx="1.5" fill="#263238"/>
<rect x="150" y="87" width="115" height="3" rx="1.5" fill="#BBC7CD"/>
<rect x="150" y="98" width="95" height="3" rx="1.5" fill="#BBC7CD"/>
<rect x="150" y="109" width="111" height="3" rx="1.5" fill="#BBC7CD"/>
<rect opacity="0.5" x="128" y="62" width="153" height="1" fill="#BBC7CD"/>
<rect x="24" y="31" width="74" height="16" rx="8" fill="white"/>
<path d="M39.9805 37.7705C39.9544 37.6954 39.9121 37.6339 39.8535 37.5861C39.7949 37.5314 39.7298 37.4973 39.6582 37.4836H39.6484L36.6895 37.0328L35.3613 34.2152C35.3288 34.1537 35.2799 34.1025 35.2148 34.0615C35.1497 34.0205 35.0781 34 35 34C34.9219 34 34.8503 34.0205 34.7852 34.0615C34.7201 34.1025 34.6712 34.1537 34.6387 34.2152L33.3105 37.0328L30.3516 37.4836C30.2734 37.4973 30.2051 37.5314 30.1465 37.5861C30.0879 37.6339 30.0456 37.6954 30.0195 37.7705C30.013 37.791 30.0065 37.8149 30 37.8422C30 37.8627 30 37.8866 30 37.9139C30 37.9754 30.0098 38.0335 30.0293 38.0881C30.0553 38.1359 30.0846 38.1803 30.1172 38.2213L32.2656 40.4037L31.7578 43.498C31.7578 43.5116 31.7578 43.5253 31.7578 43.5389C31.7578 43.5458 31.7578 43.556 31.7578 43.5697C31.7578 43.6448 31.7708 43.7097 31.7969 43.7643C31.8294 43.8258 31.8717 43.877 31.9238 43.918C31.9564 43.9454 31.9922 43.9658 32.0312 43.9795C32.0768 43.9932 32.1224 44 32.168 44C32.2005 44 32.2331 43.9932 32.2656 43.9795C32.2982 43.9727 32.3307 43.9624 32.3633 43.9488H32.3535L35 42.4939L37.6465 43.9488C37.6725 43.9624 37.7018 43.9727 37.7344 43.9795C37.7669 43.9932 37.8027 44 37.8418 44C37.8874 44 37.9297 43.9932 37.9688 43.9795C38.0078 43.9658 38.0436 43.9454 38.0762 43.918C38.1283 43.877 38.1706 43.8258 38.2031 43.7643C38.2357 43.7097 38.252 43.6448 38.252 43.5697C38.252 43.556 38.2487 43.5458 38.2422 43.5389C38.2422 43.5253 38.2422 43.5116 38.2422 43.498L37.7344 40.4037L39.873 38.2213C39.9121 38.1803 39.9414 38.1325 39.9609 38.0779C39.987 38.0232 40 37.9652 40 37.9037C40 37.8832 39.9967 37.8627 39.9902 37.8422C39.9902 37.8149 39.987 37.791 39.9805 37.7705Z" fill="#FBC02D"/>
<path d="M52.9805 37.7705C52.9544 37.6954 52.9121 37.6339 52.8535 37.5861C52.7949 37.5314 52.7298 37.4973 52.6582 37.4836H52.6484L49.6895 37.0328L48.3613 34.2152C48.3288 34.1537 48.2799 34.1025 48.2148 34.0615C48.1497 34.0205 48.0781 34 48 34C47.9219 34 47.8503 34.0205 47.7852 34.0615C47.7201 34.1025 47.6712 34.1537 47.6387 34.2152L46.3105 37.0328L43.3516 37.4836C43.2734 37.4973 43.2051 37.5314 43.1465 37.5861C43.0879 37.6339 43.0456 37.6954 43.0195 37.7705C43.013 37.791 43.0065 37.8149 43 37.8422C43 37.8627 43 37.8866 43 37.9139C43 37.9754 43.0098 38.0335 43.0293 38.0881C43.0553 38.1359 43.0846 38.1803 43.1172 38.2213L45.2656 40.4037L44.7578 43.498C44.7578 43.5116 44.7578 43.5253 44.7578 43.5389C44.7578 43.5458 44.7578 43.556 44.7578 43.5697C44.7578 43.6448 44.7708 43.7097 44.7969 43.7643C44.8294 43.8258 44.8717 43.877 44.9238 43.918C44.9564 43.9454 44.9922 43.9658 45.0312 43.9795C45.0768 43.9932 45.1224 44 45.168 44C45.2005 44 45.2331 43.9932 45.2656 43.9795C45.2982 43.9727 45.3307 43.9624 45.3633 43.9488H45.3535L48 42.4939L50.6465 43.9488C50.6725 43.9624 50.7018 43.9727 50.7344 43.9795C50.7669 43.9932 50.8027 44 50.8418 44C50.8874 44 50.9297 43.9932 50.9688 43.9795C51.0078 43.9658 51.0436 43.9454 51.0762 43.918C51.1283 43.877 51.1706 43.8258 51.2031 43.7643C51.2357 43.7097 51.252 43.6448 51.252 43.5697C51.252 43.556 51.2487 43.5458 51.2422 43.5389C51.2422 43.5253 51.2422 43.5116 51.2422 43.498L50.7344 40.4037L52.873 38.2213C52.9121 38.1803 52.9414 38.1325 52.9609 38.0779C52.987 38.0232 53 37.9652 53 37.9037C53 37.8832 52.9967 37.8627 52.9902 37.8422C52.9902 37.8149 52.987 37.791 52.9805 37.7705Z" fill="#FBC02D"/>
<path d="M65.9805 37.7705C65.9544 37.6954 65.9121 37.6339 65.8535 37.5861C65.7949 37.5314 65.7298 37.4973 65.6582 37.4836H65.6484L62.6895 37.0328L61.3613 34.2152C61.3288 34.1537 61.2799 34.1025 61.2148 34.0615C61.1497 34.0205 61.0781 34 61 34C60.9219 34 60.8503 34.0205 60.7852 34.0615C60.7201 34.1025 60.6712 34.1537 60.6387 34.2152L59.3105 37.0328L56.3516 37.4836C56.2734 37.4973 56.2051 37.5314 56.1465 37.5861C56.0879 37.6339 56.0456 37.6954 56.0195 37.7705C56.013 37.791 56.0065 37.8149 56 37.8422C56 37.8627 56 37.8866 56 37.9139C56 37.9754 56.0098 38.0335 56.0293 38.0881C56.0553 38.1359 56.0846 38.1803 56.1172 38.2213L58.2656 40.4037L57.7578 43.498C57.7578 43.5116 57.7578 43.5253 57.7578 43.5389C57.7578 43.5458 57.7578 43.556 57.7578 43.5697C57.7578 43.6448 57.7708 43.7097 57.7969 43.7643C57.8294 43.8258 57.8717 43.877 57.9238 43.918C57.9564 43.9454 57.9922 43.9658 58.0312 43.9795C58.0768 43.9932 58.1224 44 58.168 44C58.2005 44 58.2331 43.9932 58.2656 43.9795C58.2982 43.9727 58.3307 43.9624 58.3633 43.9488H58.3535L61 42.4939L63.6465 43.9488C63.6725 43.9624 63.7018 43.9727 63.7344 43.9795C63.7669 43.9932 63.8027 44 63.8418 44C63.8874 44 63.9297 43.9932 63.9688 43.9795C64.0078 43.9658 64.0436 43.9454 64.0762 43.918C64.1283 43.877 64.1706 43.8258 64.2031 43.7643C64.2357 43.7097 64.252 43.6448 64.252 43.5697C64.252 43.556 64.2487 43.5458 64.2422 43.5389C64.2422 43.5253 64.2422 43.5116 64.2422 43.498L63.7344 40.4037L65.873 38.2213C65.9121 38.1803 65.9414 38.1325 65.9609 38.0779C65.987 38.0232 66 37.9652 66 37.9037C66 37.8832 65.9967 37.8627 65.9902 37.8422C65.9902 37.8149 65.987 37.791 65.9805 37.7705Z" fill="#FBC02D"/>
<path d="M78.9805 37.7705C78.9544 37.6954 78.9121 37.6339 78.8535 37.5861C78.7949 37.5314 78.7298 37.4973 78.6582 37.4836H78.6484L75.6895 37.0328L74.3613 34.2152C74.3288 34.1537 74.2799 34.1025 74.2148 34.0615C74.1497 34.0205 74.0781 34 74 34C73.9219 34 73.8503 34.0205 73.7852 34.0615C73.7201 34.1025 73.6712 34.1537 73.6387 34.2152L72.3105 37.0328L69.3516 37.4836C69.2734 37.4973 69.2051 37.5314 69.1465 37.5861C69.0879 37.6339 69.0456 37.6954 69.0195 37.7705C69.013 37.791 69.0065 37.8149 69 37.8422C69 37.8627 69 37.8866 69 37.9139C69 37.9754 69.0098 38.0335 69.0293 38.0881C69.0553 38.1359 69.0846 38.1803 69.1172 38.2213L71.2656 40.4037L70.7578 43.498C70.7578 43.5116 70.7578 43.5253 70.7578 43.5389C70.7578 43.5458 70.7578 43.556 70.7578 43.5697C70.7578 43.6448 70.7708 43.7097 70.7969 43.7643C70.8294 43.8258 70.8717 43.877 70.9238 43.918C70.9564 43.9454 70.9922 43.9658 71.0312 43.9795C71.0768 43.9932 71.1224 44 71.168 44C71.2005 44 71.2331 43.9932 71.2656 43.9795C71.2982 43.9727 71.3307 43.9624 71.3633 43.9488H71.3535L74 42.4939L76.6465 43.9488C76.6725 43.9624 76.7018 43.9727 76.7344 43.9795C76.7669 43.9932 76.8027 44 76.8418 44C76.8874 44 76.9297 43.9932 76.9688 43.9795C77.0078 43.9658 77.0436 43.9454 77.0762 43.918C77.1283 43.877 77.1706 43.8258 77.2031 43.7643C77.2357 43.7097 77.252 43.6448 77.252 43.5697C77.252 43.556 77.2487 43.5458 77.2422 43.5389C77.2422 43.5253 77.2422 43.5116 77.2422 43.498L76.7344 40.4037L78.873 38.2213C78.9121 38.1803 78.9414 38.1325 78.9609 38.0779C78.987 38.0232 79 37.9652 79 37.9037C79 37.8832 78.9967 37.8627 78.9902 37.8422C78.9902 37.8149 78.987 37.791 78.9805 37.7705Z" fill="#FBC02D"/>
<path d="M91.9805 37.7705C91.9544 37.6954 91.9121 37.6339 91.8535 37.5861C91.7949 37.5314 91.7298 37.4973 91.6582 37.4836H91.6484L88.6895 37.0328L87.3613 34.2152C87.3288 34.1537 87.2799 34.1025 87.2148 34.0615C87.1497 34.0205 87.0781 34 87 34C86.9219 34 86.8503 34.0205 86.7852 34.0615C86.7201 34.1025 86.6712 34.1537 86.6387 34.2152L85.3105 37.0328L82.3516 37.4836C82.2734 37.4973 82.2051 37.5314 82.1465 37.5861C82.0879 37.6339 82.0456 37.6954 82.0195 37.7705C82.013 37.791 82.0065 37.8149 82 37.8422C82 37.8627 82 37.8866 82 37.9139C82 37.9754 82.0098 38.0335 82.0293 38.0881C82.0553 38.1359 82.0846 38.1803 82.1172 38.2213L84.2656 40.4037L83.7578 43.498C83.7578 43.5116 83.7578 43.5253 83.7578 43.5389C83.7578 43.5458 83.7578 43.556 83.7578 43.5697C83.7578 43.6448 83.7708 43.7097 83.7969 43.7643C83.8294 43.8258 83.8717 43.877 83.9238 43.918C83.9564 43.9454 83.9922 43.9658 84.0312 43.9795C84.0768 43.9932 84.1224 44 84.168 44C84.2005 44 84.2331 43.9932 84.2656 43.9795C84.2982 43.9727 84.3307 43.9624 84.3633 43.9488H84.3535L87 42.4939L89.6465 43.9488C89.6725 43.9624 89.7018 43.9727 89.7344 43.9795C89.7669 43.9932 89.8027 44 89.8418 44C89.8874 44 89.9297 43.9932 89.9688 43.9795C90.0078 43.9658 90.0436 43.9454 90.0762 43.918C90.1283 43.877 90.1706 43.8258 90.2031 43.7643C90.2357 43.7097 90.252 43.6448 90.252 43.5697C90.252 43.556 90.2487 43.5458 90.2422 43.5389C90.2422 43.5253 90.2422 43.5116 90.2422 43.498L89.7344 40.4037L91.873 38.2213C91.9121 38.1803 91.9414 38.1325 91.9609 38.0779C91.987 38.0232 92 37.9652 92 37.9037C92 37.8832 91.9967 37.8627 91.9902 37.8422C91.9902 37.8149 91.987 37.791 91.9805 37.7705Z" fill="#9CAEB7"/>
<rect x="24" y="59" width="8" height="3" rx="1.5" fill="#BBC7CD"/>
<rect x="24" y="70" width="8" height="3" rx="1.5" fill="#BBC7CD"/>
<rect x="24" y="81" width="8" height="3" rx="1.5" fill="#BBC7CD"/>
<rect x="24" y="92" width="8" height="3" rx="1.5" fill="#BBC7CD"/>
<rect x="24" y="103" width="8" height="3" rx="1.5" fill="#BBC7CD"/>
<rect x="40" y="59" width="52" height="3" rx="1.5" fill="white"/>
<rect x="40" y="70" width="52" height="3" rx="1.5" fill="white"/>
<rect x="40" y="81" width="52" height="3" rx="1.5" fill="white"/>
<rect x="40" y="92" width="52" height="3" rx="1.5" fill="white"/>
<rect x="40" y="103" width="52" height="3" rx="1.5" fill="white"/>
<rect x="40" y="59" width="40" height="3" rx="1.5" fill="#FBC02D"/>
<rect x="40" y="70" width="16" height="3" rx="1.5" fill="#FBC02D"/>
<rect x="40" y="81" width="15" height="3" rx="1.5" fill="#FBC02D"/>
<rect x="40" y="92" width="11" height="3" rx="1.5" fill="#FBC02D"/>
<rect x="40" y="103" width="8" height="3" rx="1.5" fill="#FBC02D"/>
</svg>
