<svg width="283" height="132" viewBox="0 0 283 132" fill="none" xmlns="http://www.w3.org/2000/svg">
<g clip-path="url(#clip0_2274_24132)">
<rect width="283" height="132" rx="4" fill="white" fill-opacity="0.15"/>
<rect x="1" y="1" width="281" height="130" rx="3" stroke="#BBC7CD" stroke-opacity="0.5" stroke-width="2"/>
<g filter="url(#filter0_d_2274_24132)">
<path d="M24 61C24 59.3431 25.3431 58 27 58H256C257.657 58 259 59.3431 259 61V130H24V61Z" fill="#212121"/>
</g>
<path d="M136.34 107.66C136.45 107.66 136.5 107.6 136.5 107.5V106.44C136.5 105.53 136.03 105.03 135.14 105V104.41C135.14 104.31 135.08 104.25 134.98 104.25H134.01C133.9 104.25 133.85 104.31 133.85 104.41V105C132.98 105.03 132.5 105.53 132.5 106.44V108.8C132.5 108.99 132.59 109.11 132.77 109.17L135.14 109.95V111.28C135.14 111.55 135 111.68 134.74 111.68H134.26C134.01 111.68 133.86 111.55 133.86 111.28V110.51C133.86 110.4 133.81 110.35 133.7 110.35H132.66C132.56 110.35 132.5 110.4 132.5 110.51V111.56C132.5 112.47 132.98 112.97 133.85 113V113.59C133.85 113.69 133.9 113.75 134.01 113.75H134.98C135.08 113.75 135.14 113.69 135.14 113.59V113C136.03 112.97 136.5 112.47 136.5 111.56V109.25C136.5 109.06 136.41 108.95 136.24 108.88L133.86 108.1V106.72C133.86 106.46 134.01 106.32 134.26 106.32H134.74C135.01 106.32 135.14 106.46 135.14 106.72V107.5C135.14 107.6 135.2 107.66 135.3 107.66H136.34ZM137.69 105.25C137.56 105.26 137.5 105.33 137.5 105.46V106.42C137.5 106.55 137.58 106.62 137.71 106.6L138.33 106.52V112.84C138.33 112.94 138.38 113 138.49 113H139.53C139.63 113 139.69 112.94 139.69 112.84V105.16C139.69 105.06 139.63 105 139.53 105L137.69 105.25ZM140.791 111.56C140.791 112.5 141.291 113 142.231 113H143.351C144.291 113 144.791 112.5 144.791 111.56V106.44C144.791 105.5 144.291 105 143.351 105H142.231C141.291 105 140.791 105.5 140.791 106.44V111.56ZM142.521 111.71C142.261 111.71 142.121 111.58 142.121 111.31V106.69C142.121 106.43 142.261 106.29 142.521 106.29H143.101C143.361 106.29 143.501 106.43 143.501 106.69V111.31C143.501 111.58 143.361 111.71 143.101 111.71H142.521ZM145.791 112.8C145.791 112.93 145.861 113 145.991 113H146.241L145.841 113.88C145.811 113.95 145.841 114 145.921 114H146.371C146.431 114 146.461 113.98 146.491 113.93L147.031 113.11C147.081 113.03 147.101 112.96 147.101 112.86V111.88C147.101 111.75 147.031 111.68 146.901 111.68H145.991C145.861 111.68 145.791 111.75 145.791 111.88V112.8ZM148.105 111.56C148.105 112.5 148.605 113 149.545 113H150.665C151.605 113 152.105 112.5 152.105 111.56V106.44C152.105 105.5 151.605 105 150.665 105H149.545C148.605 105 148.105 105.5 148.105 106.44V111.56ZM149.835 111.71C149.575 111.71 149.435 111.58 149.435 111.31V106.69C149.435 106.43 149.575 106.29 149.835 106.29H150.415C150.675 106.29 150.815 106.43 150.815 106.69V111.31C150.815 111.58 150.675 111.71 150.415 111.71H149.835ZM153.105 111.56C153.105 112.5 153.605 113 154.545 113H155.665C156.605 113 157.105 112.5 157.105 111.56V106.44C157.105 105.5 156.605 105 155.665 105H154.545C153.605 105 153.105 105.5 153.105 106.44V111.56ZM154.835 111.71C154.575 111.71 154.435 111.58 154.435 111.31V106.69C154.435 106.43 154.575 106.29 154.835 106.29H155.415C155.675 106.29 155.815 106.43 155.815 106.69V111.31C155.815 111.58 155.675 111.71 155.415 111.71H154.835Z" fill="#BBC7CD"/>
<rect x="66" y="108" width="32" height="3" rx="1.5" fill="white"/>
<path fill-rule="evenodd" clip-rule="evenodd" d="M39.0326 111.323L36 108.858C36.0974 108.639 36.1935 108.416 36.2899 108.194C37.352 105.739 38.4481 103.205 41.6249 103C42.2089 105.073 47.791 105.073 48.3749 103C51.5519 103.205 52.648 105.739 53.7101 108.194C53.8065 108.417 53.9026 108.639 53.9999 108.858L50.9673 111.323L50.1359 110.589V120.028C47.1601 121.324 42.8399 121.324 39.8641 120.028V110.589L39.0326 111.323ZM44.6702 109.947L44.6702 109.947H44.6262L42.7333 109.26L42.4691 108.187L44.0553 108.312L44.406 107.5H45.5506L45.9014 108.312L47.5316 108.187L47.2675 109.26L45.3746 109.947H45.3306L45.3306 109.947H45.0664V107.5H44.8903V109.947H44.6702ZM43.7458 110.076L44.142 109.99L43.8338 110.42V111.751L42.7773 110.892V109.432L43.2615 109.604L43.7458 110.076ZM46.211 110.076L45.8148 109.99L46.123 110.42V111.751L47.1795 110.892V109.432L46.6952 109.604L46.211 110.076ZM44.3181 109.99L43.9659 110.506V112.438L44.23 112.824L44.5382 113.125H45.4186L45.7267 112.824L45.9909 112.438V110.506L45.6387 109.99L45.4186 110.119H44.5382L44.3181 109.99ZM46.123 112.567L46.6953 112.009V111.45L46.123 111.923V112.567ZM43.2615 112.009L43.8338 112.567V111.923L43.2615 111.45V112.009ZM46.9153 108.101L45.9909 108.187L45.6827 107.5H46.299L46.9153 108.101ZM43.9659 108.187L43.0414 108.101L43.6578 107.5H44.2741L43.9659 108.187Z" fill="#BBC7CD"/>
<rect x="184" y="108" width="15" height="3" rx="1.5" fill="#BBC7CD"/>
<rect x="239" y="108" width="8" height="3" rx="1.5" fill="#00BCD4"/>
<rect x="24" y="94" width="235" height="1" fill="white" fill-opacity="0.1"/>
<path d="M136.34 74.66C136.45 74.66 136.5 74.6 136.5 74.5V73.44C136.5 72.53 136.03 72.03 135.14 72V71.41C135.14 71.31 135.08 71.25 134.98 71.25H134.01C133.9 71.25 133.85 71.31 133.85 71.41V72C132.98 72.03 132.5 72.53 132.5 73.44V75.8C132.5 75.99 132.59 76.11 132.77 76.17L135.14 76.95V78.28C135.14 78.55 135 78.68 134.74 78.68H134.26C134.01 78.68 133.86 78.55 133.86 78.28V77.51C133.86 77.4 133.81 77.35 133.7 77.35H132.66C132.56 77.35 132.5 77.4 132.5 77.51V78.56C132.5 79.47 132.98 79.97 133.85 80V80.59C133.85 80.69 133.9 80.75 134.01 80.75H134.98C135.08 80.75 135.14 80.69 135.14 80.59V80C136.03 79.97 136.5 79.47 136.5 78.56V76.25C136.5 76.06 136.41 75.95 136.24 75.88L133.86 75.1V73.72C133.86 73.46 134.01 73.32 134.26 73.32H134.74C135.01 73.32 135.14 73.46 135.14 73.72V74.5C135.14 74.6 135.2 74.66 135.3 74.66H136.34ZM141.23 76.17C141.42 76.07 141.5 75.99 141.5 75.8V73.44C141.5 72.5 140.99 72 140.06 72H138.94C138 72 137.5 72.5 137.5 73.44V74.5C137.5 74.6 137.55 74.66 137.66 74.66H138.7C138.8 74.66 138.86 74.6 138.86 74.5V73.72C138.86 73.46 138.99 73.32 139.26 73.32H139.74C139.99 73.32 140.14 73.46 140.14 73.72V75.2L137.76 76.48C137.57 76.58 137.5 76.66 137.5 76.85V79.8C137.5 79.93 137.57 80 137.7 80H141.3C141.43 80 141.5 79.93 141.5 79.8V78.27C141.5 78.14 141.43 78.07 141.3 78.07H140.34C140.21 78.07 140.14 78.14 140.14 78.27V78.68H139.06C138.93 78.68 138.86 78.61 138.86 78.48V77.61C138.86 77.5 138.9 77.43 139 77.37L141.23 76.17ZM146.412 73.44C146.412 72.5 145.902 72 144.962 72H143.802C142.892 72 142.402 72.46 142.402 73.32V73.73C142.402 73.86 142.472 73.93 142.602 73.93H143.562C143.692 73.93 143.762 73.86 143.762 73.73V73.32H144.882C145.012 73.32 145.082 73.39 145.082 73.52V74.95C145.082 75.2 144.942 75.34 144.682 75.34H143.502C143.372 75.34 143.302 75.41 143.302 75.54V76.46C143.302 76.59 143.372 76.66 143.502 76.66H144.682C144.952 76.66 145.082 76.8 145.082 77.06V78.48C145.082 78.61 145.012 78.68 144.882 78.68H143.762V78.27C143.762 78.14 143.692 78.07 143.562 78.07H142.602C142.472 78.07 142.402 78.14 142.402 78.27V78.6C142.402 79.51 142.892 80 143.802 80H144.962C145.902 80 146.412 79.5 146.412 78.56V76.72C146.412 76.35 146.142 76.07 145.782 76.01V75.99C146.142 75.93 146.412 75.65 146.412 75.28V73.44ZM147.412 79.8C147.412 79.93 147.482 80 147.612 80H147.862L147.462 80.88C147.432 80.95 147.462 81 147.542 81H147.992C148.052 81 148.082 80.98 148.112 80.93L148.652 80.11C148.702 80.03 148.722 79.96 148.722 79.86V78.88C148.722 78.75 148.652 78.68 148.522 78.68H147.612C147.482 78.68 147.412 78.75 147.412 78.88V79.8ZM151 76.91L149.79 79.77C149.73 79.91 149.79 80 149.94 80H150.98C151.1 80 151.17 79.95 151.21 79.85L152.63 76.47C152.7 76.29 152.73 76.16 152.73 75.97V73.4C152.73 72.49 152.24 72 151.33 72H150.13C149.22 72 148.73 72.49 148.73 73.4V75.51C148.73 76.42 149.22 76.91 150.13 76.91H151ZM151.01 73.32C151.27 73.32 151.41 73.46 151.41 73.72V75.19C151.41 75.45 151.27 75.59 151.01 75.59H150.45C150.19 75.59 150.05 75.45 150.05 75.19V73.72C150.05 73.46 150.19 73.32 150.45 73.32H151.01ZM153.73 78.56C153.73 79.5 154.23 80 155.17 80H156.29C157.23 80 157.73 79.5 157.73 78.56V73.44C157.73 72.5 157.23 72 156.29 72H155.17C154.23 72 153.73 72.5 153.73 73.44V78.56ZM155.46 78.71C155.2 78.71 155.06 78.58 155.06 78.31V73.69C155.06 73.43 155.2 73.29 155.46 73.29H156.04C156.3 73.29 156.44 73.43 156.44 73.69V78.31C156.44 78.58 156.3 78.71 156.04 78.71H155.46Z" fill="#BBC7CD"/>
<rect x="66" y="75" width="24" height="3" rx="1.5" fill="white"/>
<path fill-rule="evenodd" clip-rule="evenodd" d="M39.0326 78.323L36 75.8584C36.0974 75.6387 36.1935 75.4165 36.2899 75.1937C37.352 72.7385 38.4481 70.2049 41.6249 70C42.2089 72.0735 47.791 72.0735 48.3749 70C51.5519 70.205 52.648 72.7386 53.7101 75.1938C53.8065 75.4166 53.9026 75.6387 53.9999 75.8584L50.9673 78.323L50.1359 77.5889V87.0279C47.1601 88.324 42.8399 88.324 39.8641 87.0279V77.5889L39.0326 78.323ZM44.6702 76.9473L44.6702 76.9474H44.6262L42.7333 76.2604L42.4691 75.1869L44.0553 75.3123L44.406 74.4998H45.5506L45.9014 75.3124L47.5316 75.1869L47.2675 76.2604L45.3746 76.9474H45.3306L45.3306 76.9473H45.0664V74.4998H44.8903V76.9473H44.6702ZM43.7458 77.0763L44.142 76.9904L43.8338 77.4198V78.7509L42.7773 77.8921V76.4322L43.2615 76.6039L43.7458 77.0763ZM46.211 77.0763L45.8148 76.9904L46.123 77.4198V78.7509L47.1795 77.8921V76.4322L46.6952 76.6039L46.211 77.0763ZM44.3181 76.9905L43.9659 77.5058V79.438L44.23 79.8245L44.5382 80.125H45.4186L45.7267 79.8245L45.9909 79.438V77.5058L45.6387 76.9905L45.4186 77.1193H44.5382L44.3181 76.9905ZM46.123 79.5668L46.6953 79.0086V78.4504L46.123 78.9228V79.5668ZM43.2615 79.0086L43.8338 79.5668V78.9228L43.2615 78.4504V79.0086ZM46.9153 75.1009L45.9909 75.1868L45.6827 74.4998H46.299L46.9153 75.1009ZM43.9659 75.1868L43.0414 75.1009L43.6578 74.4998H44.2741L43.9659 75.1868Z" fill="#BBC7CD"/>
<rect x="184" y="75" width="26" height="3" rx="1.5" fill="#BBC7CD"/>
<rect x="239" y="75" width="8" height="3" rx="1.5" fill="#00BCD4"/>
<rect x="24" y="43" width="38" height="3" rx="1.5" fill="white"/>
<rect x="78" y="43" width="24" height="3" rx="1.5" fill="#BBC7CD"/>
<rect x="118" y="43" width="24" height="3" rx="1.5" fill="#BBC7CD"/>
<rect x="2" y="2" width="279" height="27" fill="#212121"/>
<rect x="62" y="14" width="16" height="3" rx="1.5" fill="#BBC7CD"/>
<rect x="90" y="14" width="16" height="3" rx="1.5" fill="#BBC7CD"/>
<rect x="118" y="14" width="16" height="3" rx="1.5" fill="#BBC7CD"/>
<rect x="146" y="14" width="16" height="3" rx="1.5" fill="#BBC7CD"/>
<circle cx="32" cy="16" r="6" fill="#607D8B"/>
</g>
<defs>
<filter id="filter0_d_2274_24132" x="22" y="58" width="239" height="76" filterUnits="userSpaceOnUse" color-interpolation-filters="sRGB">
<feFlood flood-opacity="0" result="BackgroundImageFix"/>
<feColorMatrix in="SourceAlpha" type="matrix" values="0 0 0 0 0 0 0 0 0 0 0 0 0 0 0 0 0 0 127 0" result="hardAlpha"/>
<feOffset dy="2"/>
<feGaussianBlur stdDeviation="1"/>
<feColorMatrix type="matrix" values="0 0 0 0 0 0 0 0 0 0 0 0 0 0 0 0 0 0 0.03 0"/>
<feBlend mode="normal" in2="BackgroundImageFix" result="effect1_dropShadow_2274_24132"/>
<feBlend mode="normal" in="SourceGraphic" in2="effect1_dropShadow_2274_24132" result="shape"/>
</filter>
<clipPath id="clip0_2274_24132">
<rect width="283" height="132" fill="white"/>
</clipPath>
</defs>
</svg>
