<svg width="283" height="132" viewBox="0 0 283 132" fill="none" xmlns="http://www.w3.org/2000/svg">
<g clip-path="url(#clip0_1206_10240)">
<rect x="1" y="1" width="281" height="130" rx="3" fill="#ECEFF1" stroke="#BBC7CD" stroke-width="2"/>
<g filter="url(#filter0_d_1206_10240)">
<path d="M2 73H281V128C281 129.105 280.105 130 279 130H4C2.89543 130 2 129.105 2 128V73Z" fill="#BBC7CD"/>
</g>
<g filter="url(#filter1_d_1206_10240)">
<rect x="38" y="41" width="207" height="64" rx="3" fill="white"/>
</g>
<rect x="123" y="83" width="40" height="10" rx="5" fill="#263238"/>
<rect x="133" y="87" width="20" height="2" rx="1" fill="#BBC7CD"/>
<rect x="99" y="57" width="88" height="3" rx="1.5" fill="#263238"/>
<rect x="190" y="18" width="16" height="3" rx="1.5" fill="#BBC7CD"/>
<rect x="162" y="18" width="16" height="3" rx="1.5" fill="#BBC7CD"/>
<rect x="112" y="68" width="61" height="3" rx="1.5" fill="#BBC7CD"/>
<rect x="218" y="18" width="16" height="3" rx="1.5" fill="#BBC7CD"/>
<rect x="246" y="18" width="16" height="3" rx="1.5" fill="#BBC7CD"/>
<circle cx="32" cy="20" r="8" fill="#F57C00"/>
</g>
<defs>
<filter id="filter0_d_1206_10240" x="0" y="73" width="283" height="61" filterUnits="userSpaceOnUse" color-interpolation-filters="sRGB">
<feFlood flood-opacity="0" result="BackgroundImageFix"/>
<feColorMatrix in="SourceAlpha" type="matrix" values="0 0 0 0 0 0 0 0 0 0 0 0 0 0 0 0 0 0 127 0" result="hardAlpha"/>
<feOffset dy="2"/>
<feGaussianBlur stdDeviation="1"/>
<feColorMatrix type="matrix" values="0 0 0 0 0 0 0 0 0 0 0 0 0 0 0 0 0 0 0.03 0"/>
<feBlend mode="normal" in2="BackgroundImageFix" result="effect1_dropShadow_1206_10240"/>
<feBlend mode="normal" in="SourceGraphic" in2="effect1_dropShadow_1206_10240" result="shape"/>
</filter>
<filter id="filter1_d_1206_10240" x="36" y="41" width="211" height="68" filterUnits="userSpaceOnUse" color-interpolation-filters="sRGB">
<feFlood flood-opacity="0" result="BackgroundImageFix"/>
<feColorMatrix in="SourceAlpha" type="matrix" values="0 0 0 0 0 0 0 0 0 0 0 0 0 0 0 0 0 0 127 0" result="hardAlpha"/>
<feOffset dy="2"/>
<feGaussianBlur stdDeviation="1"/>
<feColorMatrix type="matrix" values="0 0 0 0 0 0 0 0 0 0 0 0 0 0 0 0 0 0 0.03 0"/>
<feBlend mode="normal" in2="BackgroundImageFix" result="effect1_dropShadow_1206_10240"/>
<feBlend mode="normal" in="SourceGraphic" in2="effect1_dropShadow_1206_10240" result="shape"/>
</filter>
<clipPath id="clip0_1206_10240">
<rect width="283" height="132" fill="white"/>
</clipPath>
</defs>
</svg>
