<svg width="283" height="132" viewBox="0 0 283 132" fill="none" xmlns="http://www.w3.org/2000/svg">
<rect x="1" y="1" width="281" height="130" rx="3" fill="#ECEFF1" stroke="#BBC7CD" stroke-width="2"/>
<mask id="mask0_1220_10973" style="mask-type:alpha" maskUnits="userSpaceOnUse" x="2" y="29" width="279" height="101">
<path d="M2 29H281V128C281 129.105 280.105 130 279 130H4C2.89543 130 2 129.105 2 128V29Z" fill="white"/>
</mask>
<g mask="url(#mask0_1220_10973)">
<g filter="url(#filter0_d_1220_10973)">
<rect x="150" y="37" width="42" height="38" rx="3" fill="white"/>
</g>
<path fill-rule="evenodd" clip-rule="evenodd" d="M161.717 54.9469L157 51.113C157.151 50.7712 157.301 50.4256 157.451 50.079C159.103 46.2599 160.808 42.3188 165.75 42C166.658 45.2254 175.341 45.2254 176.25 42C181.192 42.3188 182.897 46.26 184.549 50.0792C184.699 50.4257 184.848 50.7713 185 51.113L180.282 54.9469L178.989 53.8049V68.4879C174.36 70.504 167.64 70.504 163.011 68.4879V53.8049L161.717 54.9469ZM170.418 52.8071H170.418L167.474 51.7384L167.063 50.0685L169.531 50.2637L170.076 49H170.829V52.8072H170.418L170.418 52.8071ZM171.103 49V52.8072H171.583L171.583 52.807L174.527 51.7384L174.938 50.0685L172.402 50.2638L171.856 49H171.103ZM169.049 53.0078L169.665 52.8742L169.186 53.5422V55.6128L167.542 54.2769V52.0059L168.296 52.2731L169.049 53.0078ZM172.884 53.0078L172.267 52.8742L172.747 53.5422V55.6128L174.39 54.2769V52.0059L173.637 52.2731L172.884 53.0078ZM169.939 52.8739L169.391 53.6754V56.6811L169.802 57.2822L170.281 57.7498H171.651L172.13 57.2822L172.541 56.6811V53.6754L171.993 52.8739L171.651 53.0742H170.281L169.939 52.8739ZM172.747 56.8819L173.637 56.0136V55.1453L172.747 55.88V56.8819ZM168.296 56.0136L169.186 56.8819V55.88L168.296 55.1453V56.0136ZM173.979 49.9351L172.541 50.0687L172.062 49H173.021L173.979 49.9351ZM169.391 50.0687L167.953 49.9351L168.912 49H169.871L169.391 50.0687Z" fill="#BBC7CD"/>
<rect x="155" y="83" width="32" height="3" rx="1.5" fill="#263238"/>
<g filter="url(#filter1_d_1220_10973)">
<rect x="209" y="37" width="42" height="38" rx="3" fill="white"/>
</g>
<path fill-rule="evenodd" clip-rule="evenodd" d="M220.717 54.9469L216 51.113C216.151 50.7712 216.301 50.4256 216.451 50.079C218.103 46.2599 219.808 42.3188 224.75 42C225.658 45.2254 234.341 45.2254 235.25 42C240.192 42.3188 241.897 46.26 243.549 50.0792C243.699 50.4257 243.848 50.7713 244 51.113L239.282 54.9469L237.989 53.8049V68.4879C233.36 70.504 226.64 70.504 222.011 68.4879V53.8049L220.717 54.9469ZM229.418 52.8071H229.418L226.474 51.7384L226.063 50.0685L228.531 50.2637L229.076 49H229.829V52.8072H229.418L229.418 52.8071ZM230.103 49V52.8072H230.583L230.583 52.807L233.527 51.7384L233.938 50.0685L231.402 50.2638L230.856 49H230.103ZM228.049 53.0078L228.665 52.8742L228.186 53.5422V55.6128L226.542 54.2769V52.0059L227.296 52.2731L228.049 53.0078ZM231.884 53.0078L231.267 52.8742L231.747 53.5422V55.6128L233.39 54.2769V52.0059L232.637 52.2731L231.884 53.0078ZM228.939 52.8739L228.391 53.6754V56.6811L228.802 57.2822L229.281 57.7498H230.651L231.13 57.2822L231.541 56.6811V53.6754L230.993 52.8739L230.651 53.0742H229.281L228.939 52.8739ZM231.747 56.8819L232.637 56.0136V55.1453L231.747 55.88V56.8819ZM227.296 56.0136L228.186 56.8819V55.88L227.296 55.1453V56.0136ZM232.979 49.9351L231.541 50.0687L231.062 49H232.021L232.979 49.9351ZM228.391 50.0687L226.953 49.9351L227.912 49H228.871L228.391 50.0687Z" fill="#BBC7CD"/>
<rect x="214" y="83" width="32" height="3" rx="1.5" fill="#263238"/>
<g filter="url(#filter2_d_1220_10973)">
<rect x="32" y="37" width="42" height="38" rx="3" fill="white"/>
</g>
<path fill-rule="evenodd" clip-rule="evenodd" d="M43.7174 54.9469L39 51.113C39.1515 50.7712 39.301 50.4256 39.4509 50.079C41.1031 46.2599 42.8081 42.3188 47.7499 42C48.6584 45.2254 57.3415 45.2254 58.2499 42C63.1918 42.3188 64.8969 46.26 66.5491 50.0792C66.699 50.4257 66.8485 50.7713 66.9999 51.113L62.2825 54.9469L60.9891 53.8049V68.4879C56.3602 70.504 49.6398 70.504 45.0108 68.4879V53.8049L43.7174 54.9469ZM52.4184 52.8071H52.4183L49.4738 51.7384L49.0629 50.0685L51.5305 50.2637L52.076 49H52.8293V52.8072H52.4184L52.4184 52.8071ZM53.1032 49V52.8072H53.5826L53.5826 52.807L56.5271 51.7384L56.938 50.0685L54.402 50.2638L53.8565 49H53.1032ZM51.0488 53.0078L51.6651 52.8742L51.1858 53.5422V55.6128L49.5423 54.2769V52.0059L50.2955 52.2731L51.0488 53.0078ZM54.8837 53.0078L54.2674 52.8742L54.7467 53.5422V55.6128L56.3902 54.2769V52.0059L55.6369 52.2731L54.8837 53.0078ZM51.9391 52.8739L51.3913 53.6754V56.6811L51.8021 57.2822L52.2815 57.7498H53.651L54.1304 57.2822L54.5413 56.6811V53.6754L53.9934 52.8739L53.651 53.0742H52.2815L51.9391 52.8739ZM54.7467 56.8819L55.6369 56.0136V55.1453L54.7467 55.88V56.8819ZM50.2955 56.0136L51.1858 56.8819V55.88L50.2955 55.1453V56.0136ZM55.9793 49.9351L54.5412 50.0687L54.0619 49H55.0206L55.9793 49.9351ZM51.3912 50.0687L49.9532 49.9351L50.9119 49H51.8706L51.3912 50.0687Z" fill="#BBC7CD"/>
<rect x="37" y="83" width="32" height="3" rx="1.5" fill="#263238"/>
<g filter="url(#filter3_d_1220_10973)">
<rect x="91" y="37" width="42" height="38" rx="3" fill="white"/>
</g>
<path fill-rule="evenodd" clip-rule="evenodd" d="M102.717 54.9469L98 51.113C98.1515 50.7712 98.301 50.4256 98.4509 50.079C100.103 46.2599 101.808 42.3188 106.75 42C107.658 45.2254 116.341 45.2254 117.25 42C122.192 42.3188 123.897 46.26 125.549 50.0792C125.699 50.4257 125.848 50.7713 126 51.113L121.282 54.9469L119.989 53.8049V68.4879C115.36 70.504 108.64 70.504 104.011 68.4879V53.8049L102.717 54.9469ZM111.418 52.8071H111.418L108.474 51.7384L108.063 50.0685L110.531 50.2637L111.076 49H111.829V52.8072H111.418L111.418 52.8071ZM112.103 49V52.8072H112.583L112.583 52.807L115.527 51.7384L115.938 50.0685L113.402 50.2638L112.856 49H112.103ZM110.049 53.0078L110.665 52.8742L110.186 53.5422V55.6128L108.542 54.2769V52.0059L109.296 52.2731L110.049 53.0078ZM113.884 53.0078L113.267 52.8742L113.747 53.5422V55.6128L115.39 54.2769V52.0059L114.637 52.2731L113.884 53.0078ZM110.939 52.8739L110.391 53.6754V56.6811L110.802 57.2822L111.281 57.7498H112.651L113.13 57.2822L113.541 56.6811V53.6754L112.993 52.8739L112.651 53.0742H111.281L110.939 52.8739ZM113.747 56.8819L114.637 56.0136V55.1453L113.747 55.88V56.8819ZM109.296 56.0136L110.186 56.8819V55.88L109.296 55.1453V56.0136ZM114.979 49.9351L113.541 50.0687L113.062 49H114.021L114.979 49.9351ZM110.391 50.0687L108.953 49.9351L109.912 49H110.871L110.391 50.0687Z" fill="#BBC7CD"/>
<rect x="96" y="83" width="32" height="3" rx="1.5" fill="#263238"/>
<g filter="url(#filter4_d_1220_10973)">
<rect x="149" y="102" width="42" height="38" rx="3" fill="white"/>
</g>
<path fill-rule="evenodd" clip-rule="evenodd" d="M160.717 119.947L156 116.113C156.151 115.771 156.301 115.426 156.451 115.079C158.103 111.26 159.808 107.319 164.75 107C165.658 110.225 174.341 110.225 175.25 107C180.192 107.319 181.897 111.26 183.549 115.079C183.699 115.426 183.848 115.771 184 116.113L179.282 119.947L177.989 118.805V133.488C173.36 135.504 166.64 135.504 162.011 133.488V118.805L160.717 119.947ZM169.418 117.807H169.418L166.474 116.738L166.063 115.069L168.531 115.264L169.076 114H169.829V117.807H169.418L169.418 117.807ZM170.103 114V117.807H170.583L170.583 117.807L173.527 116.738L173.938 115.069L171.402 115.264L170.856 114H170.103ZM168.049 118.008L168.665 117.874L168.186 118.542V120.613L166.542 119.277V117.006L167.296 117.273L168.049 118.008ZM171.884 118.008L171.267 117.874L171.747 118.542V120.613L173.39 119.277V117.006L172.637 117.273L171.884 118.008ZM168.939 117.874L168.391 118.675V121.681L168.802 122.282L169.281 122.75H170.651L171.13 122.282L171.541 121.681V118.675L170.993 117.874L170.651 118.074H169.281L168.939 117.874ZM171.747 121.882L172.637 121.014V120.145L171.747 120.88V121.882ZM167.296 121.014L168.186 121.882V120.88L167.296 120.145V121.014ZM172.979 114.935L171.541 115.069L171.062 114H172.021L172.979 114.935ZM168.391 115.069L166.953 114.935L167.912 114H168.871L168.391 115.069Z" fill="#BBC7CD"/>
<g filter="url(#filter5_d_1220_10973)">
<rect x="207" y="102" width="42" height="38" rx="3" fill="white"/>
</g>
<path fill-rule="evenodd" clip-rule="evenodd" d="M218.717 119.947L214 116.113C214.151 115.771 214.301 115.426 214.451 115.079C216.103 111.26 217.808 107.319 222.75 107C223.658 110.225 232.341 110.225 233.25 107C238.192 107.319 239.897 111.26 241.549 115.079C241.699 115.426 241.848 115.771 242 116.113L237.282 119.947L235.989 118.805V133.488C231.36 135.504 224.64 135.504 220.011 133.488V118.805L218.717 119.947ZM227.418 117.807H227.418L224.474 116.738L224.063 115.069L226.531 115.264L227.076 114H227.829V117.807H227.418L227.418 117.807ZM228.103 114V117.807H228.583L228.583 117.807L231.527 116.738L231.938 115.069L229.402 115.264L228.856 114H228.103ZM226.049 118.008L226.665 117.874L226.186 118.542V120.613L224.542 119.277V117.006L225.296 117.273L226.049 118.008ZM229.884 118.008L229.267 117.874L229.747 118.542V120.613L231.39 119.277V117.006L230.637 117.273L229.884 118.008ZM226.939 117.874L226.391 118.675V121.681L226.802 122.282L227.281 122.75H228.651L229.13 122.282L229.541 121.681V118.675L228.993 117.874L228.651 118.074H227.281L226.939 117.874ZM229.747 121.882L230.637 121.014V120.145L229.747 120.88V121.882ZM225.296 121.014L226.186 121.882V120.88L225.296 120.145V121.014ZM230.979 114.935L229.541 115.069L229.062 114H230.021L230.979 114.935ZM226.391 115.069L224.953 114.935L225.912 114H226.871L226.391 115.069Z" fill="#BBC7CD"/>
<g filter="url(#filter6_d_1220_10973)">
<rect x="33" y="102" width="42" height="38" rx="3" fill="white"/>
</g>
<path fill-rule="evenodd" clip-rule="evenodd" d="M44.7174 119.947L40 116.113C40.1515 115.771 40.301 115.426 40.4509 115.079C42.1031 111.26 43.8081 107.319 48.7499 107C49.6584 110.225 58.3415 110.225 59.2499 107C64.1918 107.319 65.8969 111.26 67.5491 115.079C67.699 115.426 67.8485 115.771 67.9999 116.113L63.2825 119.947L61.9891 118.805V133.488C57.3602 135.504 50.6398 135.504 46.0108 133.488V118.805L44.7174 119.947ZM53.4184 117.807H53.4183L50.4738 116.738L50.0629 115.069L52.5305 115.264L53.076 114H53.8293V117.807H53.4184L53.4184 117.807ZM54.1032 114V117.807H54.5826L54.5826 117.807L57.5271 116.738L57.938 115.069L55.402 115.264L54.8565 114H54.1032ZM52.0488 118.008L52.6651 117.874L52.1858 118.542V120.613L50.5423 119.277V117.006L51.2955 117.273L52.0488 118.008ZM55.8837 118.008L55.2674 117.874L55.7467 118.542V120.613L57.3902 119.277V117.006L56.6369 117.273L55.8837 118.008ZM52.9391 117.874L52.3913 118.675V121.681L52.8021 122.282L53.2815 122.75H54.651L55.1304 122.282L55.5413 121.681V118.675L54.9934 117.874L54.651 118.074H53.2815L52.9391 117.874ZM55.7467 121.882L56.6369 121.014V120.145L55.7467 120.88V121.882ZM51.2955 121.014L52.1858 121.882V120.88L51.2955 120.145V121.014ZM56.9793 114.935L55.5412 115.069L55.0619 114H56.0206L56.9793 114.935ZM52.3912 115.069L50.9532 114.935L51.9119 114H52.8706L52.3912 115.069Z" fill="#BBC7CD"/>
<g filter="url(#filter7_d_1220_10973)">
<rect x="91" y="102" width="42" height="38" rx="3" fill="white"/>
</g>
<path fill-rule="evenodd" clip-rule="evenodd" d="M102.717 119.947L98 116.113C98.1515 115.771 98.301 115.426 98.4509 115.079C100.103 111.26 101.808 107.319 106.75 107C107.658 110.225 116.341 110.225 117.25 107C122.192 107.319 123.897 111.26 125.549 115.079C125.699 115.426 125.848 115.771 126 116.113L121.282 119.947L119.989 118.805V133.488C115.36 135.504 108.64 135.504 104.011 133.488V118.805L102.717 119.947ZM111.418 117.807H111.418L108.474 116.738L108.063 115.069L110.531 115.264L111.076 114H111.829V117.807H111.418L111.418 117.807ZM112.103 114V117.807H112.583L112.583 117.807L115.527 116.738L115.938 115.069L113.402 115.264L112.856 114H112.103ZM110.049 118.008L110.665 117.874L110.186 118.542V120.613L108.542 119.277V117.006L109.296 117.273L110.049 118.008ZM113.884 118.008L113.267 117.874L113.747 118.542V120.613L115.39 119.277V117.006L114.637 117.273L113.884 118.008ZM110.939 117.874L110.391 118.675V121.681L110.802 122.282L111.281 122.75H112.651L113.13 122.282L113.541 121.681V118.675L112.993 117.874L112.651 118.074H111.281L110.939 117.874ZM113.747 121.882L114.637 121.014V120.145L113.747 120.88V121.882ZM109.296 121.014L110.186 121.882V120.88L109.296 120.145V121.014ZM114.979 114.935L113.541 115.069L113.062 114H114.021L114.979 114.935ZM110.391 115.069L108.953 114.935L109.912 114H110.871L110.391 115.069Z" fill="#BBC7CD"/>
<rect x="82" y="29" width="1" height="101" fill="#D9E0E3"/>
<rect x="141" y="29" width="1" height="101" fill="#D9E0E3"/>
<rect x="200" y="29" width="1" height="101" fill="#D9E0E3"/>
<rect x="2" y="94" width="279" height="1" fill="#D9E0E3"/>
</g>
<rect x="2" y="2" width="279" height="27" fill="white"/>
<rect x="217" y="14" width="16" height="3" rx="1.5" fill="#BBC7CD"/>
<rect x="189" y="14" width="16" height="3" rx="1.5" fill="#BBC7CD"/>
<rect x="161" y="14" width="16" height="3" rx="1.5" fill="#BBC7CD"/>
<rect x="245" y="14" width="16" height="3" rx="1.5" fill="#BBC7CD"/>
<circle cx="32" cy="16" r="6" fill="#607D8B"/>
<defs>
<filter id="filter0_d_1220_10973" x="148" y="37" width="46" height="42" filterUnits="userSpaceOnUse" color-interpolation-filters="sRGB">
<feFlood flood-opacity="0" result="BackgroundImageFix"/>
<feColorMatrix in="SourceAlpha" type="matrix" values="0 0 0 0 0 0 0 0 0 0 0 0 0 0 0 0 0 0 127 0" result="hardAlpha"/>
<feOffset dy="2"/>
<feGaussianBlur stdDeviation="1"/>
<feColorMatrix type="matrix" values="0 0 0 0 0 0 0 0 0 0 0 0 0 0 0 0 0 0 0.03 0"/>
<feBlend mode="normal" in2="BackgroundImageFix" result="effect1_dropShadow_1220_10973"/>
<feBlend mode="normal" in="SourceGraphic" in2="effect1_dropShadow_1220_10973" result="shape"/>
</filter>
<filter id="filter1_d_1220_10973" x="207" y="37" width="46" height="42" filterUnits="userSpaceOnUse" color-interpolation-filters="sRGB">
<feFlood flood-opacity="0" result="BackgroundImageFix"/>
<feColorMatrix in="SourceAlpha" type="matrix" values="0 0 0 0 0 0 0 0 0 0 0 0 0 0 0 0 0 0 127 0" result="hardAlpha"/>
<feOffset dy="2"/>
<feGaussianBlur stdDeviation="1"/>
<feColorMatrix type="matrix" values="0 0 0 0 0 0 0 0 0 0 0 0 0 0 0 0 0 0 0.03 0"/>
<feBlend mode="normal" in2="BackgroundImageFix" result="effect1_dropShadow_1220_10973"/>
<feBlend mode="normal" in="SourceGraphic" in2="effect1_dropShadow_1220_10973" result="shape"/>
</filter>
<filter id="filter2_d_1220_10973" x="30" y="37" width="46" height="42" filterUnits="userSpaceOnUse" color-interpolation-filters="sRGB">
<feFlood flood-opacity="0" result="BackgroundImageFix"/>
<feColorMatrix in="SourceAlpha" type="matrix" values="0 0 0 0 0 0 0 0 0 0 0 0 0 0 0 0 0 0 127 0" result="hardAlpha"/>
<feOffset dy="2"/>
<feGaussianBlur stdDeviation="1"/>
<feColorMatrix type="matrix" values="0 0 0 0 0 0 0 0 0 0 0 0 0 0 0 0 0 0 0.03 0"/>
<feBlend mode="normal" in2="BackgroundImageFix" result="effect1_dropShadow_1220_10973"/>
<feBlend mode="normal" in="SourceGraphic" in2="effect1_dropShadow_1220_10973" result="shape"/>
</filter>
<filter id="filter3_d_1220_10973" x="89" y="37" width="46" height="42" filterUnits="userSpaceOnUse" color-interpolation-filters="sRGB">
<feFlood flood-opacity="0" result="BackgroundImageFix"/>
<feColorMatrix in="SourceAlpha" type="matrix" values="0 0 0 0 0 0 0 0 0 0 0 0 0 0 0 0 0 0 127 0" result="hardAlpha"/>
<feOffset dy="2"/>
<feGaussianBlur stdDeviation="1"/>
<feColorMatrix type="matrix" values="0 0 0 0 0 0 0 0 0 0 0 0 0 0 0 0 0 0 0.03 0"/>
<feBlend mode="normal" in2="BackgroundImageFix" result="effect1_dropShadow_1220_10973"/>
<feBlend mode="normal" in="SourceGraphic" in2="effect1_dropShadow_1220_10973" result="shape"/>
</filter>
<filter id="filter4_d_1220_10973" x="147" y="102" width="46" height="42" filterUnits="userSpaceOnUse" color-interpolation-filters="sRGB">
<feFlood flood-opacity="0" result="BackgroundImageFix"/>
<feColorMatrix in="SourceAlpha" type="matrix" values="0 0 0 0 0 0 0 0 0 0 0 0 0 0 0 0 0 0 127 0" result="hardAlpha"/>
<feOffset dy="2"/>
<feGaussianBlur stdDeviation="1"/>
<feColorMatrix type="matrix" values="0 0 0 0 0 0 0 0 0 0 0 0 0 0 0 0 0 0 0.03 0"/>
<feBlend mode="normal" in2="BackgroundImageFix" result="effect1_dropShadow_1220_10973"/>
<feBlend mode="normal" in="SourceGraphic" in2="effect1_dropShadow_1220_10973" result="shape"/>
</filter>
<filter id="filter5_d_1220_10973" x="205" y="102" width="46" height="42" filterUnits="userSpaceOnUse" color-interpolation-filters="sRGB">
<feFlood flood-opacity="0" result="BackgroundImageFix"/>
<feColorMatrix in="SourceAlpha" type="matrix" values="0 0 0 0 0 0 0 0 0 0 0 0 0 0 0 0 0 0 127 0" result="hardAlpha"/>
<feOffset dy="2"/>
<feGaussianBlur stdDeviation="1"/>
<feColorMatrix type="matrix" values="0 0 0 0 0 0 0 0 0 0 0 0 0 0 0 0 0 0 0.03 0"/>
<feBlend mode="normal" in2="BackgroundImageFix" result="effect1_dropShadow_1220_10973"/>
<feBlend mode="normal" in="SourceGraphic" in2="effect1_dropShadow_1220_10973" result="shape"/>
</filter>
<filter id="filter6_d_1220_10973" x="31" y="102" width="46" height="42" filterUnits="userSpaceOnUse" color-interpolation-filters="sRGB">
<feFlood flood-opacity="0" result="BackgroundImageFix"/>
<feColorMatrix in="SourceAlpha" type="matrix" values="0 0 0 0 0 0 0 0 0 0 0 0 0 0 0 0 0 0 127 0" result="hardAlpha"/>
<feOffset dy="2"/>
<feGaussianBlur stdDeviation="1"/>
<feColorMatrix type="matrix" values="0 0 0 0 0 0 0 0 0 0 0 0 0 0 0 0 0 0 0.03 0"/>
<feBlend mode="normal" in2="BackgroundImageFix" result="effect1_dropShadow_1220_10973"/>
<feBlend mode="normal" in="SourceGraphic" in2="effect1_dropShadow_1220_10973" result="shape"/>
</filter>
<filter id="filter7_d_1220_10973" x="89" y="102" width="46" height="42" filterUnits="userSpaceOnUse" color-interpolation-filters="sRGB">
<feFlood flood-opacity="0" result="BackgroundImageFix"/>
<feColorMatrix in="SourceAlpha" type="matrix" values="0 0 0 0 0 0 0 0 0 0 0 0 0 0 0 0 0 0 127 0" result="hardAlpha"/>
<feOffset dy="2"/>
<feGaussianBlur stdDeviation="1"/>
<feColorMatrix type="matrix" values="0 0 0 0 0 0 0 0 0 0 0 0 0 0 0 0 0 0 0.03 0"/>
<feBlend mode="normal" in2="BackgroundImageFix" result="effect1_dropShadow_1220_10973"/>
<feBlend mode="normal" in="SourceGraphic" in2="effect1_dropShadow_1220_10973" result="shape"/>
</filter>
</defs>
</svg>
