<svg width="283" height="132" viewBox="0 0 283 132" fill="none" xmlns="http://www.w3.org/2000/svg">
<rect x="1" y="1" width="281" height="130" rx="3" fill="#ECEFF1" stroke="#BBC7CD" stroke-width="2"/>
<mask id="mask0_1220_10844" style="mask-type:alpha" maskUnits="userSpaceOnUse" x="2" y="58" width="279" height="72">
<path d="M2 58H281V128C281 129.105 280.105 130 279 130H4C2.89543 130 2 129.105 2 128V58Z" fill="white"/>
</mask>
<g mask="url(#mask0_1220_10844)">
<g filter="url(#filter0_d_1220_10844)">
<rect x="162.956" y="18.1277" width="72" height="60" rx="3" transform="rotate(20 162.956 18.1277)" fill="white"/>
</g>
<path fill-rule="evenodd" clip-rule="evenodd" d="M175.772 53.2769C175.772 53.2769 173.096 48.806 171.758 46.5705C172.092 46.2241 172.424 45.8723 172.758 45.5195C176.433 41.6319 180.226 37.62 186.337 39.408C186.016 43.7044 196.507 47.5227 199.023 44.0253C204.854 46.5836 205.18 52.0951 205.497 57.4359C205.526 57.9205 205.555 58.4037 205.587 58.8832C203.126 59.7358 200.664 60.5883 198.202 61.4407C198.025 61.1165 197.849 60.7924 197.673 60.4682C197.495 60.1429 197.318 59.8176 197.141 59.4923L190.685 77.2319C184.205 77.6323 176.086 74.6771 171.38 70.2056L177.837 52.466C177.149 52.7364 175.772 53.2769 175.772 53.2769ZM189.396 50.0988L188.486 49.7676L187.271 51.0547L184.375 49.7339L184.137 51.932L187.225 54.518L187.308 54.5482L187.308 54.5481L188.549 54.9998L188.549 54.9998L188.632 55.03L192.659 55.0336L193.89 53.1968L190.74 52.3176L190.637 50.5505L189.727 50.2193L188.052 54.8191L187.722 54.6987L189.396 50.0988ZM185.482 54.158L186.286 54.2676L185.413 54.8638L184.502 57.3655L183.104 55.0288L184.103 52.285L184.895 52.9391L185.482 54.158ZM190.115 55.8443L189.43 55.4119L189.715 56.4297L188.804 58.9314L191.377 58.0401L192.376 55.2963L191.349 55.2879L190.115 55.8443ZM186.617 54.3879L185.602 55.1154L184.281 58.7468L184.513 59.6538L184.886 60.4295L186.541 61.0317L187.326 60.6776L188.086 60.132L189.408 56.5006L189.099 55.2913L188.597 55.3828L186.942 54.7805L186.617 54.3879ZM188.246 60.4645L189.704 59.8069L190.086 58.7578L188.687 59.254L188.246 60.4645ZM183.25 57.4581L183.944 58.8986L184.385 57.6881L183.632 56.409L183.25 57.4581ZM192.79 52.6138L190.994 52.1428L190.885 50.6409L192.043 51.0624L192.79 52.6138ZM187.188 50.7576L185.51 49.9639L187.079 49.2557L188.237 49.6772L187.188 50.7576Z" fill="#C2EFF5"/>
<g filter="url(#filter1_d_1220_10844)">
<rect x="228.641" y="68.6396" width="72" height="60" rx="3" transform="rotate(20 228.641 68.6396)" fill="white"/>
</g>
<path fill-rule="evenodd" clip-rule="evenodd" d="M241.457 103.789C241.457 103.789 238.781 99.3179 237.444 97.0824C237.777 96.7361 238.109 96.3843 238.443 96.0315C242.119 92.1438 245.912 88.132 252.022 89.92C251.702 94.2163 262.192 98.0347 264.708 94.5373C270.539 97.0956 270.866 102.607 271.182 107.948C271.211 108.432 271.24 108.916 271.273 109.395C268.811 110.248 266.349 111.1 263.887 111.953C263.711 111.629 263.534 111.304 263.358 110.98C263.181 110.655 263.004 110.33 262.827 110.004L256.37 127.744C249.891 128.144 241.771 125.189 237.065 120.718L243.522 102.978C242.834 103.248 241.457 103.789 241.457 103.789ZM255.081 100.611L254.171 100.28L252.956 101.567L250.061 100.246L249.823 102.444L252.91 105.03L252.993 105.06L252.993 105.06L254.234 105.512L254.234 105.512L254.317 105.542L258.344 105.546L259.575 103.709L256.425 102.83L256.322 101.062L255.412 100.731L253.738 105.331L253.407 105.211L255.081 100.611ZM251.167 104.67L251.971 104.78L251.098 105.376L250.187 107.877L248.789 105.541L249.788 102.797L250.581 103.451L251.167 104.67ZM255.801 106.356L255.115 105.924L255.4 106.942L254.49 109.443L257.063 108.552L258.061 105.808L257.034 105.8L255.801 106.356ZM252.302 104.9L251.287 105.627L249.966 109.259L250.198 110.166L250.571 110.941L252.226 111.544L253.011 111.19L253.772 110.644L255.093 107.013L254.784 105.803L254.282 105.895L252.627 105.293L252.302 104.9ZM253.932 110.976L255.389 110.319L255.771 109.27L254.372 109.766L253.932 110.976ZM248.936 107.97L249.629 109.411L250.07 108.2L249.318 106.921L248.936 107.97ZM258.476 103.126L256.679 102.655L256.57 101.153L257.728 101.574L258.476 103.126ZM252.874 101.27L251.195 100.476L252.764 99.7676L253.923 100.189L252.874 101.27Z" fill="#A0D2FA"/>
<g filter="url(#filter2_d_1220_10844)">
<rect x="138.672" y="84.8459" width="72" height="60" rx="3" transform="rotate(20 138.672 84.8459)" fill="white"/>
</g>
<path fill-rule="evenodd" clip-rule="evenodd" d="M151.489 119.995C151.489 119.995 148.813 115.524 147.475 113.289C147.808 112.942 148.141 112.591 148.474 112.238C152.15 108.35 155.943 104.338 162.054 106.126C161.733 110.423 172.224 114.241 174.74 110.744C180.57 113.302 180.897 118.813 181.214 124.154C181.243 124.639 181.271 125.122 181.304 125.601C178.842 126.454 176.38 127.307 173.918 128.159C173.742 127.835 173.566 127.511 173.389 127.186C173.212 126.861 173.035 126.536 172.858 126.211L166.401 143.95C159.922 144.351 151.803 141.395 147.097 136.924L153.553 119.184C152.865 119.455 151.489 119.995 151.489 119.995ZM165.112 116.817L164.202 116.486L162.987 117.773L160.092 116.452L159.854 118.65L162.942 121.236L163.024 121.266L163.024 121.266L164.265 121.718L164.265 121.718L164.348 121.748L168.376 121.752L169.606 119.915L166.457 119.036L166.353 117.269L165.443 116.938L163.769 121.537L163.438 121.417L165.112 116.817ZM161.199 120.876L162.002 120.986L161.129 121.582L160.219 124.084L158.821 121.747L159.819 119.003L160.612 119.657L161.199 120.876ZM165.832 122.563L165.146 122.13L165.432 123.148L164.521 125.65L167.094 124.758L168.093 122.015L167.065 122.006L165.832 122.563ZM162.333 121.106L161.319 121.834L159.997 125.465L160.229 126.372L160.603 127.148L162.257 127.75L163.042 127.396L163.803 126.85L165.125 123.219L164.815 122.01L164.313 122.101L162.659 121.499L162.333 121.106ZM163.963 127.183L165.42 126.525L165.802 125.476L164.404 125.972L163.963 127.183ZM158.967 124.176L159.661 125.617L160.101 124.406L159.349 123.127L158.967 124.176ZM168.507 119.332L166.711 118.861L166.602 117.359L167.76 117.781L168.507 119.332ZM162.905 117.476L161.226 116.682L162.796 115.974L163.954 116.396L162.905 117.476Z" fill="#BBC7CD"/>
</g>
<rect x="2" y="2" width="279" height="32" fill="white"/>
<rect x="2" y="34" width="279" height="24" fill="white"/>
<rect opacity="0.5" x="2" y="34" width="279" height="1" fill="#BBC7CD"/>
<rect x="26" y="45" width="16" height="3" rx="1.5" fill="#BBC7CD"/>
<rect x="54" y="45" width="16" height="3" rx="1.5" fill="#BBC7CD"/>
<rect x="26" y="74" width="61" height="3" rx="1.5" fill="#263238"/>
<rect x="26" y="85" width="41" height="3" rx="1.5" fill="#263238"/>
<rect x="26" y="100" width="53" height="3" rx="1.5" fill="#BBC7CD"/>
<rect x="26" y="111" width="29" height="3" rx="1.5" fill="#BBC7CD"/>
<rect x="82" y="45" width="16" height="3" rx="1.5" fill="#BBC7CD"/>
<rect x="110" y="45" width="16" height="3" rx="1.5" fill="#BBC7CD"/>
<rect x="138" y="45" width="16" height="3" rx="1.5" fill="#00BCD4"/>
<rect x="166" y="45" width="16" height="3" rx="1.5" fill="#BBC7CD"/>
<rect x="217" y="16" width="16" height="3" rx="1.5" fill="#BBC7CD"/>
<rect x="245" y="16" width="16" height="3" rx="1.5" fill="#BBC7CD"/>
<circle cx="34" cy="18" r="8" fill="#F57C00"/>
<defs>
<filter id="filter0_d_1220_10844" x="141.279" y="18.9719" width="90.4904" height="83.3184" filterUnits="userSpaceOnUse" color-interpolation-filters="sRGB">
<feFlood flood-opacity="0" result="BackgroundImageFix"/>
<feColorMatrix in="SourceAlpha" type="matrix" values="0 0 0 0 0 0 0 0 0 0 0 0 0 0 0 0 0 0 127 0" result="hardAlpha"/>
<feOffset dy="2"/>
<feGaussianBlur stdDeviation="1"/>
<feColorMatrix type="matrix" values="0 0 0 0 0 0 0 0 0 0 0 0 0 0 0 0 0 0 0.03 0"/>
<feBlend mode="normal" in2="BackgroundImageFix" result="effect1_dropShadow_1220_10844"/>
<feBlend mode="normal" in="SourceGraphic" in2="effect1_dropShadow_1220_10844" result="shape"/>
</filter>
<filter id="filter1_d_1220_10844" x="206.964" y="69.4839" width="90.4904" height="83.3184" filterUnits="userSpaceOnUse" color-interpolation-filters="sRGB">
<feFlood flood-opacity="0" result="BackgroundImageFix"/>
<feColorMatrix in="SourceAlpha" type="matrix" values="0 0 0 0 0 0 0 0 0 0 0 0 0 0 0 0 0 0 127 0" result="hardAlpha"/>
<feOffset dy="2"/>
<feGaussianBlur stdDeviation="1"/>
<feColorMatrix type="matrix" values="0 0 0 0 0 0 0 0 0 0 0 0 0 0 0 0 0 0 0.03 0"/>
<feBlend mode="normal" in2="BackgroundImageFix" result="effect1_dropShadow_1220_10844"/>
<feBlend mode="normal" in="SourceGraphic" in2="effect1_dropShadow_1220_10844" result="shape"/>
</filter>
<filter id="filter2_d_1220_10844" x="116.995" y="85.6902" width="90.4904" height="83.3184" filterUnits="userSpaceOnUse" color-interpolation-filters="sRGB">
<feFlood flood-opacity="0" result="BackgroundImageFix"/>
<feColorMatrix in="SourceAlpha" type="matrix" values="0 0 0 0 0 0 0 0 0 0 0 0 0 0 0 0 0 0 127 0" result="hardAlpha"/>
<feOffset dy="2"/>
<feGaussianBlur stdDeviation="1"/>
<feColorMatrix type="matrix" values="0 0 0 0 0 0 0 0 0 0 0 0 0 0 0 0 0 0 0.03 0"/>
<feBlend mode="normal" in2="BackgroundImageFix" result="effect1_dropShadow_1220_10844"/>
<feBlend mode="normal" in="SourceGraphic" in2="effect1_dropShadow_1220_10844" result="shape"/>
</filter>
</defs>
</svg>
