<svg width="283" height="132" viewBox="0 0 283 132" fill="none" xmlns="http://www.w3.org/2000/svg">
<rect x="1" y="1" width="281" height="130" rx="3" fill="#ECEFF1" stroke="#BBC7CD" stroke-width="2"/>
<rect x="190" y="18" width="16" height="3" rx="1.5" fill="#BBC7CD"/>
<rect x="162" y="18" width="16" height="3" rx="1.5" fill="#BBC7CD"/>
<rect x="186" y="92" width="40" height="10" rx="5" fill="#263238"/>
<rect x="196" y="96" width="20" height="2" rx="1" fill="#BBC7CD"/>
<path d="M191.208 75.592C191.34 75.592 191.4 75.52 191.4 75.4V74.128C191.4 73.036 190.836 72.436 189.768 72.4V71.692C189.768 71.572 189.696 71.5 189.576 71.5H188.412C188.28 71.5 188.22 71.572 188.22 71.692V72.4C187.176 72.436 186.6 73.036 186.6 74.128V76.96C186.6 77.188 186.708 77.332 186.924 77.404L189.768 78.34V79.936C189.768 80.26 189.6 80.416 189.288 80.416H188.712C188.412 80.416 188.232 80.26 188.232 79.936V79.012C188.232 78.88 188.172 78.82 188.04 78.82H186.792C186.672 78.82 186.6 78.88 186.6 79.012V80.272C186.6 81.364 187.176 81.964 188.22 82V82.708C188.22 82.828 188.28 82.9 188.412 82.9H189.576C189.696 82.9 189.768 82.828 189.768 82.708V82C190.836 81.964 191.4 81.364 191.4 80.272V77.5C191.4 77.272 191.292 77.14 191.088 77.056L188.232 76.12V74.464C188.232 74.152 188.412 73.984 188.712 73.984H189.288C189.612 73.984 189.768 74.152 189.768 74.464V75.4C189.768 75.52 189.84 75.592 189.96 75.592H191.208ZM197.076 77.404C197.304 77.284 197.4 77.188 197.4 76.96V74.128C197.4 73 196.788 72.4 195.672 72.4H194.328C193.2 72.4 192.6 73 192.6 74.128V75.4C192.6 75.52 192.66 75.592 192.792 75.592H194.04C194.16 75.592 194.232 75.52 194.232 75.4V74.464C194.232 74.152 194.388 73.984 194.712 73.984H195.288C195.588 73.984 195.768 74.152 195.768 74.464V76.24L192.912 77.776C192.684 77.896 192.6 77.992 192.6 78.22V81.76C192.6 81.916 192.684 82 192.84 82H197.16C197.316 82 197.4 81.916 197.4 81.76V79.924C197.4 79.768 197.316 79.684 197.16 79.684H196.008C195.852 79.684 195.768 79.768 195.768 79.924V80.416H194.472C194.316 80.416 194.232 80.332 194.232 80.176V79.132C194.232 79 194.28 78.916 194.4 78.844L197.076 77.404ZM203.295 74.128C203.295 73 202.683 72.4 201.555 72.4H200.163C199.071 72.4 198.483 72.952 198.483 73.984V74.476C198.483 74.632 198.567 74.716 198.723 74.716H199.875C200.031 74.716 200.115 74.632 200.115 74.476V73.984H201.459C201.615 73.984 201.699 74.068 201.699 74.224V75.94C201.699 76.24 201.531 76.408 201.219 76.408H199.803C199.647 76.408 199.563 76.492 199.563 76.648V77.752C199.563 77.908 199.647 77.992 199.803 77.992H201.219C201.543 77.992 201.699 78.16 201.699 78.472V80.176C201.699 80.332 201.615 80.416 201.459 80.416H200.115V79.924C200.115 79.768 200.031 79.684 199.875 79.684H198.723C198.567 79.684 198.483 79.768 198.483 79.924V80.32C198.483 81.412 199.071 82 200.163 82H201.555C202.683 82 203.295 81.4 203.295 80.272V78.064C203.295 77.62 202.971 77.284 202.539 77.212V77.188C202.971 77.116 203.295 76.78 203.295 76.336V74.128ZM204.495 81.76C204.495 81.916 204.579 82 204.735 82H205.035L204.555 83.056C204.519 83.14 204.555 83.2 204.651 83.2H205.191C205.263 83.2 205.299 83.176 205.335 83.116L205.983 82.132C206.043 82.036 206.067 81.952 206.067 81.832V80.656C206.067 80.5 205.983 80.416 205.827 80.416H204.735C204.579 80.416 204.495 80.5 204.495 80.656V81.76ZM208.801 78.292L207.349 81.724C207.277 81.892 207.349 82 207.529 82H208.777C208.921 82 209.005 81.94 209.053 81.82L210.757 77.764C210.841 77.548 210.877 77.392 210.877 77.164V74.08C210.877 72.988 210.289 72.4 209.197 72.4H207.757C206.665 72.4 206.077 72.988 206.077 74.08V76.612C206.077 77.704 206.665 78.292 207.757 78.292H208.801ZM208.813 73.984C209.125 73.984 209.293 74.152 209.293 74.464V76.228C209.293 76.54 209.125 76.708 208.813 76.708H208.141C207.829 76.708 207.661 76.54 207.661 76.228V74.464C207.661 74.152 207.829 73.984 208.141 73.984H208.813ZM212.077 80.272C212.077 81.4 212.677 82 213.805 82H215.149C216.277 82 216.877 81.4 216.877 80.272V74.128C216.877 73 216.277 72.4 215.149 72.4H213.805C212.677 72.4 212.077 73 212.077 74.128V80.272ZM214.153 80.452C213.841 80.452 213.673 80.296 213.673 79.972V74.428C213.673 74.116 213.841 73.948 214.153 73.948H214.849C215.161 73.948 215.329 74.116 215.329 74.428V79.972C215.329 80.296 215.161 80.452 214.849 80.452H214.153Z" fill="#9CAEB7"/>
<g filter="url(#filter0_d_1206_10099)">
<rect x="90" y="42" width="80" height="65" rx="3" fill="white"/>
</g>
<path fill-rule="evenodd" clip-rule="evenodd" d="M141.16 87.4786V81.4881C148.24 81.4881 154 75.1648 154 67.2441C154 59.3233 148.24 53 141.16 53H106.2C106.09 53 106 53.0895 106 53.2V87.4786C106 91.672 110 95 113.72 95H134.38C138.16 95 141.16 91.6054 141.16 87.4786ZM141.16 76.962V57.4596C146.02 57.4596 149.92 61.9192 149.92 67.2441C149.92 72.5689 146.02 76.962 141.16 76.962ZM122.181 73.2468H122.181L115.002 70.6819L114 66.6742L120.016 67.1426L121.346 64.1094H123.183V73.2468L122.181 73.2468ZM123.85 64.1094V73.2468H124.852L124.852 73.2468H125.019L125.019 73.2468H125.019L132.198 70.6819L133.2 66.6743L127.017 67.143L125.687 64.1094H123.85ZM118.842 73.7283L120.344 73.4077L119.176 75.0107V79.9802L115.169 76.7741V71.3237L117.005 71.965L118.842 73.7283ZM128.191 73.7283L126.689 73.4077L127.857 75.0107V79.9802L131.864 76.7741V71.3237L130.028 71.965L128.191 73.7283ZM121.012 73.4072L119.677 75.3309V82.5446L120.678 83.9874L121.847 85.1095H125.186L126.355 83.9874L127.357 82.5446V75.3309L126.021 73.4072L125.186 73.8881H121.847L121.012 73.4072ZM127.857 83.0258L130.028 80.9419V78.8579L127.857 80.6213V83.0258ZM117.005 80.9419L119.176 83.0258V80.6213L117.005 78.8579V80.9419ZM130.863 66.3536L127.357 66.6743L126.188 64.1094H128.525L130.863 66.3536ZM119.677 66.6743L116.171 66.3536L118.508 64.1094H120.845L119.677 66.6743Z" fill="#BBC7CD"/>
<g filter="url(#filter1_d_1206_10099)">
<rect x="41" y="42" width="40" height="28" rx="3" fill="white"/>
</g>
<g filter="url(#filter2_d_1206_10099)">
<rect x="41" y="79" width="40" height="28" rx="3" fill="white"/>
</g>
<path fill-rule="evenodd" clip-rule="evenodd" d="M65.65 98.3661V95.87C68.6 95.87 71 93.2353 71 89.935C71 86.6347 68.6 84 65.65 84H51.2C51.0895 84 51 84.0895 51 84.2V98.3661C51 100.113 52.6667 101.5 54.2167 101.5H62.825C64.4 101.5 65.65 100.086 65.65 98.3661ZM65.65 93.9841V85.8582C67.675 85.8582 69.3 87.7163 69.3 89.935C69.3 92.1537 67.675 93.9841 65.65 93.9841ZM57.8116 92.4362L57.8116 92.4362H57.742L54.7507 91.3675L54.3333 89.6976L56.84 89.8928L57.3942 88.6289H58.1594V92.4362H57.8116ZM58.4377 88.6289V92.4362H58.855L58.855 92.4362H58.9246L58.9247 92.4362H58.9247L58.9247 92.4361L61.9159 91.3675L62.3333 89.6976L59.7572 89.8929L59.2029 88.6289H58.4377ZM56.3508 92.6368L56.9769 92.5032L56.4899 93.1711V95.2418L54.8203 93.9059V91.6349L55.5856 91.9021L56.3508 92.6368ZM60.2464 92.6368L59.6203 92.5032L60.1073 93.1711V95.2418L61.7768 93.9059V91.6349L61.0116 91.9021L60.2464 92.6368ZM57.2551 92.503L56.6985 93.3045V96.3103L57.1159 96.9114L57.6029 97.379H58.9942L59.4812 96.9114L59.8985 96.3103V93.3045L59.342 92.503L58.9942 92.7034H57.6029L57.2551 92.503ZM60.1073 96.5108L61.0116 95.6424V94.7741L60.1073 95.5089V96.5108ZM55.5855 95.6424L56.4899 96.5108V95.5089L55.5855 94.7741V95.6424ZM61.3594 89.564L59.8986 89.6976L59.4116 88.6289H60.3855L61.3594 89.564ZM56.6986 89.6976L55.2377 89.564L56.2116 88.6289H57.1855L56.6986 89.6976Z" fill="#BBC7CD"/>
<path fill-rule="evenodd" clip-rule="evenodd" d="M65.65 61.3661V58.87C68.6 58.87 71 56.2353 71 52.935C71 49.6347 68.6 47 65.65 47H51.2C51.0895 47 51 47.0895 51 47.2V61.3661C51 63.1133 52.6667 64.5 54.2167 64.5H62.825C64.4 64.5 65.65 63.0856 65.65 61.3661ZM65.65 56.9841V48.8582C67.675 48.8582 69.3 50.7163 69.3 52.935C69.3 55.1537 67.675 56.9841 65.65 56.9841ZM57.8116 55.4362L57.8116 55.4362H57.742L54.7507 54.3675L54.3333 52.6976L56.84 52.8928L57.3942 51.6289H58.1594V55.4362H57.8116ZM58.4377 51.6289V55.4362H58.855L58.855 55.4362H58.9246L58.9247 55.4362H58.9247L58.9247 55.4361L61.9159 54.3675L62.3333 52.6976L59.7572 52.8929L59.2029 51.6289H58.4377ZM56.3508 55.6368L56.9769 55.5032L56.4899 56.1711V58.2418L54.8203 56.9059V54.6349L55.5856 54.9021L56.3508 55.6368ZM60.2464 55.6368L59.6203 55.5032L60.1073 56.1711V58.2418L61.7768 56.9059V54.6349L61.0116 54.9021L60.2464 55.6368ZM57.2551 55.503L56.6985 56.3045V59.3103L57.1159 59.9114L57.6029 60.379H58.9942L59.4812 59.9114L59.8985 59.3103V56.3045L59.342 55.503L58.9942 55.7034H57.6029L57.2551 55.503ZM60.1073 59.5108L61.0116 58.6424V57.7741L60.1073 58.5089V59.5108ZM55.5855 58.6424L56.4899 59.5108V58.5089L55.5855 57.7741V58.6424ZM61.3594 52.564L59.8986 52.6976L59.4116 51.6289H60.3855L61.3594 52.564ZM56.6986 52.6976L55.2377 52.564L56.2116 51.6289H57.1855L56.6986 52.6976Z" fill="#BBC7CD"/>
<rect x="186" y="59" width="36" height="3" rx="1.5" fill="#BBC7CD"/>
<rect x="186" y="48" width="56" height="3" rx="1.5" fill="#263238"/>
<rect x="218" y="18" width="16" height="3" rx="1.5" fill="#BBC7CD"/>
<rect x="246" y="18" width="16" height="3" rx="1.5" fill="#BBC7CD"/>
<path d="M30.5307 11.2774C30.6911 10.8407 31.3089 10.8407 31.4693 11.2774L34.0012 18.1687C34.021 18.2225 34.0499 18.2725 34.0866 18.3165L38.7886 23.9548C39.0867 24.3122 38.7778 24.8472 38.3193 24.7677L31.0853 23.5148C31.0289 23.505 30.9711 23.505 30.9147 23.5148L23.6807 24.7677C23.2222 24.8472 22.9133 24.3122 23.2114 23.9548L27.9134 18.3165C27.9501 18.2725 27.979 18.2225 27.9988 18.1687L30.5307 11.2774Z" fill="#00BCD4"/>
<defs>
<filter id="filter0_d_1206_10099" x="88" y="42" width="84" height="69" filterUnits="userSpaceOnUse" color-interpolation-filters="sRGB">
<feFlood flood-opacity="0" result="BackgroundImageFix"/>
<feColorMatrix in="SourceAlpha" type="matrix" values="0 0 0 0 0 0 0 0 0 0 0 0 0 0 0 0 0 0 127 0" result="hardAlpha"/>
<feOffset dy="2"/>
<feGaussianBlur stdDeviation="1"/>
<feColorMatrix type="matrix" values="0 0 0 0 0 0 0 0 0 0 0 0 0 0 0 0 0 0 0.03 0"/>
<feBlend mode="normal" in2="BackgroundImageFix" result="effect1_dropShadow_1206_10099"/>
<feBlend mode="normal" in="SourceGraphic" in2="effect1_dropShadow_1206_10099" result="shape"/>
</filter>
<filter id="filter1_d_1206_10099" x="39" y="42" width="44" height="32" filterUnits="userSpaceOnUse" color-interpolation-filters="sRGB">
<feFlood flood-opacity="0" result="BackgroundImageFix"/>
<feColorMatrix in="SourceAlpha" type="matrix" values="0 0 0 0 0 0 0 0 0 0 0 0 0 0 0 0 0 0 127 0" result="hardAlpha"/>
<feOffset dy="2"/>
<feGaussianBlur stdDeviation="1"/>
<feColorMatrix type="matrix" values="0 0 0 0 0 0 0 0 0 0 0 0 0 0 0 0 0 0 0.03 0"/>
<feBlend mode="normal" in2="BackgroundImageFix" result="effect1_dropShadow_1206_10099"/>
<feBlend mode="normal" in="SourceGraphic" in2="effect1_dropShadow_1206_10099" result="shape"/>
</filter>
<filter id="filter2_d_1206_10099" x="39" y="79" width="44" height="32" filterUnits="userSpaceOnUse" color-interpolation-filters="sRGB">
<feFlood flood-opacity="0" result="BackgroundImageFix"/>
<feColorMatrix in="SourceAlpha" type="matrix" values="0 0 0 0 0 0 0 0 0 0 0 0 0 0 0 0 0 0 127 0" result="hardAlpha"/>
<feOffset dy="2"/>
<feGaussianBlur stdDeviation="1"/>
<feColorMatrix type="matrix" values="0 0 0 0 0 0 0 0 0 0 0 0 0 0 0 0 0 0 0.03 0"/>
<feBlend mode="normal" in2="BackgroundImageFix" result="effect1_dropShadow_1206_10099"/>
<feBlend mode="normal" in="SourceGraphic" in2="effect1_dropShadow_1206_10099" result="shape"/>
</filter>
</defs>
</svg>
