<svg width="283" height="132" viewBox="0 0 283 132" fill="none" xmlns="http://www.w3.org/2000/svg">
<rect x="1" y="1" width="281" height="130" rx="3" fill="#ECEFF1" stroke="#BBC7CD" stroke-width="2"/>
<mask id="mask0_1220_10910" style="mask-type:alpha" maskUnits="userSpaceOnUse" x="2" y="29" width="280" height="101">
<path d="M2 29H282V128C282 129.105 281.105 130 280 130H4C2.89543 130 2 129.105 2 128V29Z" fill="white"/>
</mask>
<g mask="url(#mask0_1220_10910)">
<g filter="url(#filter0_d_1220_10910)">
<rect x="66" y="41" width="80" height="60" rx="3" fill="white"/>
</g>
<path fill-rule="evenodd" clip-rule="evenodd" d="M92.7392 69.4956C92.7392 69.4956 88.2463 65.8444 86 64.0186C86.2164 63.5304 86.43 63.0367 86.6442 62.5415C89.0045 57.0856 91.4401 51.4554 98.4999 51C99.7977 55.6077 112.202 55.6077 113.5 51C120.56 51.4554 122.996 57.0858 125.356 62.5418C125.57 63.0368 125.784 63.5304 126 64.0186C123.754 65.8444 121.507 67.6701 119.261 69.4956C118.953 69.2237 118.645 68.9518 118.337 68.6799C118.029 68.408 117.721 68.1362 117.413 67.8642V88.8399C110.8 91.7201 101.2 91.7201 94.5869 88.8399V67.8642C93.9711 68.4081 92.7392 69.4956 92.7392 69.4956ZM105.169 66.439L100.963 64.9123L100.376 62.5268L103.901 62.8056L104.68 61.0001H107.223L108.003 62.8057L111.626 62.5268L111.039 64.9123L106.832 66.439H106.832L106.832 66.439H106.147V61.0002H105.756V66.439H105.169L105.169 66.439ZM103.213 66.7255L104.093 66.5347L103.408 67.4889V70.4469L101.06 68.5385V65.2942L102.136 65.6759L103.213 66.7255ZM108.691 66.7255L107.81 66.5347L108.495 67.4889V70.4469L110.843 68.5385V65.2942L109.767 65.6759L108.691 66.7255ZM104.484 66.5345L103.702 67.6795V71.9734L104.289 72.8322L104.973 73.5001H106.93L107.615 72.8322L108.202 71.9734V67.6795L107.419 66.5345L106.93 66.8207H104.973L104.484 66.5345ZM108.495 72.2598L109.767 71.0193V69.7788L108.495 70.8285V72.2598ZM102.137 71.0193L103.408 72.2598V70.8285L102.137 69.7788V71.0193ZM110.256 62.336L108.202 62.5268L107.517 61.0001H108.887L110.256 62.336ZM103.702 62.5268L101.647 62.336L103.017 61.0001H104.387L103.702 62.5268Z" fill="#BBC7CD"/>
<g filter="url(#filter1_d_1220_10910)">
<rect x="66" y="109" width="36" height="30" rx="3" fill="white"/>
</g>
<path fill-rule="evenodd" clip-rule="evenodd" d="M78.0325 123.323L74.9999 120.858C75.0973 120.638 75.1934 120.416 75.2898 120.193C76.3519 117.738 77.4479 115.205 80.6249 115C81.2089 117.073 86.7909 117.073 87.3749 115C90.5518 115.205 91.6479 117.738 92.7101 120.194C92.8064 120.416 92.9025 120.638 92.9999 120.858L89.9672 123.323L89.1358 122.589V132.028C86.16 133.324 81.8398 133.324 78.864 132.028V122.589L78.0325 123.323ZM83.6256 121.947L81.7331 121.26L81.469 120.186L83.0557 120.312L83.406 119.501H84.5505L84.9008 120.312L86.5316 120.186L86.2675 121.26L84.3749 121.947L84.3744 121.948H84.0664V119.501H83.8903V121.948H83.6261L83.6256 121.947ZM82.7458 122.076L83.142 121.99L82.8338 122.419V123.751L81.7773 122.892V121.432L82.2615 121.604L82.7458 122.076ZM85.211 122.076L84.8148 121.99L85.1229 122.419V123.751L86.1795 122.892V121.432L85.6952 121.604L85.211 122.076ZM83.3179 121.991L82.9658 122.506V124.439L83.2299 124.825L83.538 125.126H84.4185L84.7266 124.825L84.9908 124.439V122.506L84.6386 121.991L84.4185 122.12H83.538L83.3179 121.991ZM85.1229 124.567L85.6951 124.009V123.45L85.1229 123.923V124.567ZM82.2615 124.009L82.8338 124.567V123.923L82.2615 123.45V124.009ZM85.9152 120.102L84.9907 120.188L84.6826 119.501H85.2989L85.9152 120.102ZM82.9658 120.188L82.0414 120.102L82.6577 119.501H83.274L82.9658 120.188Z" fill="#BBC7CD"/>
<g filter="url(#filter2_d_1220_10910)">
<rect x="110" y="109" width="36" height="30" rx="3" fill="white"/>
</g>
<path fill-rule="evenodd" clip-rule="evenodd" d="M122.033 123.323L119 120.858C119.097 120.638 119.193 120.416 119.29 120.193C120.352 117.738 121.448 115.205 124.625 115C125.209 117.073 130.791 117.073 131.375 115C134.552 115.205 135.648 117.738 136.71 120.194C136.806 120.416 136.903 120.638 137 120.858L133.967 123.323L133.136 122.589V132.028C130.16 133.324 125.84 133.324 122.864 132.028V122.589L122.033 123.323ZM127.626 121.947L125.733 121.26L125.469 120.186L127.056 120.312L127.406 119.501H128.551L128.901 120.312L130.532 120.186L130.267 121.26L128.375 121.947L128.374 121.948H128.066V119.501H127.89V121.948H127.626L127.626 121.947ZM126.746 122.076L127.142 121.99L126.834 122.419V123.751L125.777 122.892V121.432L126.262 121.604L126.746 122.076ZM129.211 122.076L128.815 121.99L129.123 122.419V123.751L130.179 122.892V121.432L129.695 121.604L129.211 122.076ZM127.318 121.991L126.966 122.506V124.439L127.23 124.825L127.538 125.126H128.418L128.727 124.825L128.991 124.439V122.506L128.639 121.991L128.418 122.12H127.538L127.318 121.991ZM129.123 124.567L129.695 124.009V123.45L129.123 123.923V124.567ZM126.261 124.009L126.834 124.567V123.923L126.261 123.45V124.009ZM129.915 120.102L128.991 120.188L128.683 119.501H129.299L129.915 120.102ZM126.966 120.188L126.041 120.102L126.658 119.501H127.274L126.966 120.188Z" fill="#BBC7CD"/>
<rect x="176" y="90" width="42" height="10" rx="5" fill="#263238"/>
<rect x="190.459" y="94" width="13.7705" height="2" rx="1" fill="#BBC7CD"/>
<rect x="176" y="41" width="36" height="3" rx="1.5" fill="#263238"/>
<path d="M181.208 57.592C181.34 57.592 181.4 57.52 181.4 57.4V56.128C181.4 55.036 180.836 54.436 179.768 54.4V53.692C179.768 53.572 179.696 53.5 179.576 53.5H178.412C178.28 53.5 178.22 53.572 178.22 53.692V54.4C177.176 54.436 176.6 55.036 176.6 56.128V58.96C176.6 59.188 176.708 59.332 176.924 59.404L179.768 60.34V61.936C179.768 62.26 179.6 62.416 179.288 62.416H178.712C178.412 62.416 178.232 62.26 178.232 61.936V61.012C178.232 60.88 178.172 60.82 178.04 60.82H176.792C176.672 60.82 176.6 60.88 176.6 61.012V62.272C176.6 63.364 177.176 63.964 178.22 64V64.708C178.22 64.828 178.28 64.9 178.412 64.9H179.576C179.696 64.9 179.768 64.828 179.768 64.708V64C180.836 63.964 181.4 63.364 181.4 62.272V59.5C181.4 59.272 181.292 59.14 181.088 59.056L178.232 58.12V56.464C178.232 56.152 178.412 55.984 178.712 55.984H179.288C179.612 55.984 179.768 56.152 179.768 56.464V57.4C179.768 57.52 179.84 57.592 179.96 57.592H181.208ZM187.076 59.404C187.304 59.284 187.4 59.188 187.4 58.96V56.128C187.4 55 186.788 54.4 185.672 54.4H184.328C183.2 54.4 182.6 55 182.6 56.128V57.4C182.6 57.52 182.66 57.592 182.792 57.592H184.04C184.16 57.592 184.232 57.52 184.232 57.4V56.464C184.232 56.152 184.388 55.984 184.712 55.984H185.288C185.588 55.984 185.768 56.152 185.768 56.464V58.24L182.912 59.776C182.684 59.896 182.6 59.992 182.6 60.22V63.76C182.6 63.916 182.684 64 182.84 64H187.16C187.316 64 187.4 63.916 187.4 63.76V61.924C187.4 61.768 187.316 61.684 187.16 61.684H186.008C185.852 61.684 185.768 61.768 185.768 61.924V62.416H184.472C184.316 62.416 184.232 62.332 184.232 62.176V61.132C184.232 61 184.28 60.916 184.4 60.844L187.076 59.404ZM193.295 56.128C193.295 55 192.683 54.4 191.555 54.4H190.163C189.071 54.4 188.483 54.952 188.483 55.984V56.476C188.483 56.632 188.567 56.716 188.723 56.716H189.875C190.031 56.716 190.115 56.632 190.115 56.476V55.984H191.459C191.615 55.984 191.699 56.068 191.699 56.224V57.94C191.699 58.24 191.531 58.408 191.219 58.408H189.803C189.647 58.408 189.563 58.492 189.563 58.648V59.752C189.563 59.908 189.647 59.992 189.803 59.992H191.219C191.543 59.992 191.699 60.16 191.699 60.472V62.176C191.699 62.332 191.615 62.416 191.459 62.416H190.115V61.924C190.115 61.768 190.031 61.684 189.875 61.684H188.723C188.567 61.684 188.483 61.768 188.483 61.924V62.32C188.483 63.412 189.071 64 190.163 64H191.555C192.683 64 193.295 63.4 193.295 62.272V60.064C193.295 59.62 192.971 59.284 192.539 59.212V59.188C192.971 59.116 193.295 58.78 193.295 58.336V56.128ZM194.495 63.76C194.495 63.916 194.579 64 194.735 64H195.035L194.555 65.056C194.519 65.14 194.555 65.2 194.651 65.2H195.191C195.263 65.2 195.299 65.176 195.335 65.116L195.983 64.132C196.043 64.036 196.067 63.952 196.067 63.832V62.656C196.067 62.5 195.983 62.416 195.827 62.416H194.735C194.579 62.416 194.495 62.5 194.495 62.656V63.76ZM198.801 60.292L197.349 63.724C197.277 63.892 197.349 64 197.529 64H198.777C198.921 64 199.005 63.94 199.053 63.82L200.757 59.764C200.841 59.548 200.877 59.392 200.877 59.164V56.08C200.877 54.988 200.289 54.4 199.197 54.4H197.757C196.665 54.4 196.077 54.988 196.077 56.08V58.612C196.077 59.704 196.665 60.292 197.757 60.292H198.801ZM198.813 55.984C199.125 55.984 199.293 56.152 199.293 56.464V58.228C199.293 58.54 199.125 58.708 198.813 58.708H198.141C197.829 58.708 197.661 58.54 197.661 58.228V56.464C197.661 56.152 197.829 55.984 198.141 55.984H198.813ZM202.077 62.272C202.077 63.4 202.677 64 203.805 64H205.149C206.277 64 206.877 63.4 206.877 62.272V56.128C206.877 55 206.277 54.4 205.149 54.4H203.805C202.677 54.4 202.077 55 202.077 56.128V62.272ZM204.153 62.452C203.841 62.452 203.673 62.296 203.673 61.972V56.428C203.673 56.116 203.841 55.948 204.153 55.948H204.849C205.161 55.948 205.329 56.116 205.329 56.428V61.972C205.329 62.296 205.161 62.452 204.849 62.452H204.153Z" fill="#9CAEB7"/>
<rect x="177.5" y="75.5" width="5" height="5" rx="2.5" fill="#4BAAF5" stroke="#1C80CF" stroke-width="3"/>
<rect x="189.5" y="75.5" width="5" height="5" rx="2.5" fill="#AF50BF" stroke="#852196" stroke-width="3"/>
<rect x="201.5" y="75.5" width="5" height="5" rx="2.5" fill="#30C9DC" stroke="#00A0B4" stroke-width="3"/>
<rect x="175" y="114" width="30" height="3" rx="1.5" fill="#BBC7CD"/>
<rect x="175" y="125" width="42" height="3" rx="1.5" fill="#BBC7CD"/>
</g>
<rect x="2" y="2" width="279" height="27" fill="white"/>
<rect x="217" y="14" width="16" height="3" rx="1.5" fill="#BBC7CD"/>
<rect x="189" y="14" width="16" height="3" rx="1.5" fill="#BBC7CD"/>
<rect x="245" y="14" width="16" height="3" rx="1.5" fill="#BBC7CD"/>
<circle cx="32" cy="16" r="6" fill="#607D8B"/>
<defs>
<filter id="filter0_d_1220_10910" x="64" y="41" width="84" height="64" filterUnits="userSpaceOnUse" color-interpolation-filters="sRGB">
<feFlood flood-opacity="0" result="BackgroundImageFix"/>
<feColorMatrix in="SourceAlpha" type="matrix" values="0 0 0 0 0 0 0 0 0 0 0 0 0 0 0 0 0 0 127 0" result="hardAlpha"/>
<feOffset dy="2"/>
<feGaussianBlur stdDeviation="1"/>
<feColorMatrix type="matrix" values="0 0 0 0 0 0 0 0 0 0 0 0 0 0 0 0 0 0 0.03 0"/>
<feBlend mode="normal" in2="BackgroundImageFix" result="effect1_dropShadow_1220_10910"/>
<feBlend mode="normal" in="SourceGraphic" in2="effect1_dropShadow_1220_10910" result="shape"/>
</filter>
<filter id="filter1_d_1220_10910" x="64" y="109" width="40" height="34" filterUnits="userSpaceOnUse" color-interpolation-filters="sRGB">
<feFlood flood-opacity="0" result="BackgroundImageFix"/>
<feColorMatrix in="SourceAlpha" type="matrix" values="0 0 0 0 0 0 0 0 0 0 0 0 0 0 0 0 0 0 127 0" result="hardAlpha"/>
<feOffset dy="2"/>
<feGaussianBlur stdDeviation="1"/>
<feColorMatrix type="matrix" values="0 0 0 0 0 0 0 0 0 0 0 0 0 0 0 0 0 0 0.03 0"/>
<feBlend mode="normal" in2="BackgroundImageFix" result="effect1_dropShadow_1220_10910"/>
<feBlend mode="normal" in="SourceGraphic" in2="effect1_dropShadow_1220_10910" result="shape"/>
</filter>
<filter id="filter2_d_1220_10910" x="108" y="109" width="40" height="34" filterUnits="userSpaceOnUse" color-interpolation-filters="sRGB">
<feFlood flood-opacity="0" result="BackgroundImageFix"/>
<feColorMatrix in="SourceAlpha" type="matrix" values="0 0 0 0 0 0 0 0 0 0 0 0 0 0 0 0 0 0 127 0" result="hardAlpha"/>
<feOffset dy="2"/>
<feGaussianBlur stdDeviation="1"/>
<feColorMatrix type="matrix" values="0 0 0 0 0 0 0 0 0 0 0 0 0 0 0 0 0 0 0.03 0"/>
<feBlend mode="normal" in2="BackgroundImageFix" result="effect1_dropShadow_1220_10910"/>
<feBlend mode="normal" in="SourceGraphic" in2="effect1_dropShadow_1220_10910" result="shape"/>
</filter>
</defs>
</svg>
