<svg width="283" height="132" viewBox="0 0 283 132" fill="none" xmlns="http://www.w3.org/2000/svg">
<rect width="283" height="132" rx="4" fill="white" fill-opacity="0.15"/>
<rect x="1" y="1" width="281" height="130" rx="3" stroke="#BBC7CD" stroke-opacity="0.5" stroke-width="2"/>
<rect x="24" y="55" width="35" height="3" rx="1.5" fill="#BBC7CD"/>
<rect x="24.75" y="67.75" width="102.5" height="8.5" rx="3.25" stroke="#BBC7CD" stroke-width="1.5"/>
<rect x="24" y="89" width="35" height="3" rx="1.5" fill="#BBC7CD"/>
<rect x="24.75" y="101.75" width="76.5" height="8.5" rx="3.25" stroke="#BBC7CD" stroke-width="1.5"/>
<rect x="110.75" y="101.75" width="16.5" height="8.5" rx="3.25" stroke="#BBC7CD" stroke-width="1.5"/>
<rect x="24" y="16" width="52" height="3" rx="1.5" fill="white"/>
<rect x="25.5" y="32.5" width="9" height="9" rx="4.5" fill="#212121" stroke="#BBC7CD" stroke-width="3"/>
<rect x="49.5" y="32.5" width="9" height="9" rx="4.5" fill="#212121" stroke="#BBC7CD" stroke-width="3"/>
<rect x="73.5" y="32.5" width="9" height="9" rx="4.5" fill="#4CAF50" stroke="#419544" stroke-width="3"/>
<g filter="url(#filter0_ddd_2274_23405)">
<rect x="144" y="16" width="115" height="100" rx="3" fill="#212121"/>
</g>
<rect opacity="0.5" x="144" y="60" width="115" height="1" fill="#BBC7CD"/>
<path fill-rule="evenodd" clip-rule="evenodd" d="M156.044 35.0974L152 31.8112C152.13 31.5182 152.258 31.222 152.386 30.9249C153.803 27.6514 155.264 24.2733 159.5 24C160.279 26.7646 167.721 26.7646 168.5 24C172.736 24.2733 174.197 27.6515 175.614 30.9251C175.742 31.2221 175.87 31.5183 176 31.8112L171.956 35.0974L170.848 34.1185V46.704C166.88 48.4321 161.12 48.4321 157.152 46.704V34.1185L156.044 35.0974ZM163.501 33.2633L160.978 32.3473L160.625 30.916L162.74 31.0833L163.208 30H163.854V33.2634H163.501L163.501 33.2633ZM164.088 30V33.2634H164.499L164.499 33.2633H164.499L167.023 32.3473L167.375 30.916L165.202 31.0834L164.734 30H164.088ZM162.328 33.4353L162.856 33.3208L162.445 33.8933V35.6681L161.036 34.5231V32.5765L161.682 32.8055L162.328 33.4353ZM165.615 33.4353L165.086 33.3208L165.497 33.8933V35.6681L166.906 34.5231V32.5765L166.26 32.8055L165.615 33.4353ZM163.091 33.3206L162.621 34.0077V36.584L162.973 37.0993L163.384 37.5H164.558L164.969 37.0993L165.321 36.584V34.0077L164.851 33.3206L164.558 33.4924H163.384L163.091 33.3206ZM165.497 36.7558L166.26 36.0115V35.2673L165.497 35.897V36.7558ZM161.682 36.0115L162.445 36.7558V35.897L161.682 35.2673V36.0115ZM166.554 30.8015L165.321 30.916L164.91 30H165.732L166.554 30.8015ZM162.621 30.916L161.388 30.8015L162.21 30H163.032L162.621 30.916Z" fill="#BBC7CD"/>
<rect x="152" y="98" width="61" height="10" rx="5" fill="#BBC7CD"/>
<rect x="173" y="102" width="20" height="2" rx="1" fill="#263238"/>
<rect x="191" y="33" width="23" height="3" rx="1.5" fill="#BBC7CD"/>
<rect x="152" y="73" width="18" height="3" rx="1.5" fill="#BBC7CD"/>
<rect x="152" y="82" width="14" height="3" rx="1.5" fill="#BBC7CD"/>
<rect x="235" y="82" width="12" height="3" rx="1.5" fill="white"/>
<rect x="235" y="73" width="12" height="3" rx="1.5" fill="white"/>
<rect x="244" y="24" width="3" height="3" rx="1.5" fill="#BBC7CD"/>
<rect x="191" y="24" width="43" height="3" rx="1.5" fill="white"/>
<defs>
<filter id="filter0_ddd_2274_23405" x="139" y="13" width="125" height="111" filterUnits="userSpaceOnUse" color-interpolation-filters="sRGB">
<feFlood flood-opacity="0" result="BackgroundImageFix"/>
<feColorMatrix in="SourceAlpha" type="matrix" values="0 0 0 0 0 0 0 0 0 0 0 0 0 0 0 0 0 0 127 0" result="hardAlpha"/>
<feOffset dy="1"/>
<feGaussianBlur stdDeviation="2"/>
<feColorMatrix type="matrix" values="0 0 0 0 0 0 0 0 0 0 0 0 0 0 0 0 0 0 0.08 0"/>
<feBlend mode="normal" in2="BackgroundImageFix" result="effect1_dropShadow_2274_23405"/>
<feColorMatrix in="SourceAlpha" type="matrix" values="0 0 0 0 0 0 0 0 0 0 0 0 0 0 0 0 0 0 127 0" result="hardAlpha"/>
<feOffset/>
<feGaussianBlur stdDeviation="1"/>
<feColorMatrix type="matrix" values="0 0 0 0 0 0 0 0 0 0 0 0 0 0 0 0 0 0 0.05 0"/>
<feBlend mode="normal" in2="effect1_dropShadow_2274_23405" result="effect2_dropShadow_2274_23405"/>
<feColorMatrix in="SourceAlpha" type="matrix" values="0 0 0 0 0 0 0 0 0 0 0 0 0 0 0 0 0 0 127 0" result="hardAlpha"/>
<feOffset dy="3"/>
<feGaussianBlur stdDeviation="2.5"/>
<feColorMatrix type="matrix" values="0 0 0 0 0 0 0 0 0 0 0 0 0 0 0 0 0 0 0.02 0"/>
<feBlend mode="normal" in2="effect2_dropShadow_2274_23405" result="effect3_dropShadow_2274_23405"/>
<feBlend mode="normal" in="SourceGraphic" in2="effect3_dropShadow_2274_23405" result="shape"/>
</filter>
</defs>
</svg>
