<svg width="283" height="132" viewBox="0 0 283 132" fill="none" xmlns="http://www.w3.org/2000/svg">
<rect x="1" y="1" width="281" height="130" rx="3" fill="#ECEFF1" stroke="#BBC7CD" stroke-width="2"/>
<g opacity="0.4">
<g filter="url(#filter0_d_1206_10199)">
<rect x="25" y="20" width="72" height="60" rx="3" fill="white"/>
</g>
<path fill-rule="evenodd" clip-rule="evenodd" d="M49.0653 48.646C49.0653 48.646 45.0216 45.3599 43 43.7168C43.1947 43.2773 43.3869 42.833 43.5797 42.3874C45.704 37.4771 47.8961 32.4099 54.2499 32C55.4179 36.147 66.582 36.147 67.75 32C74.1039 32.4099 76.2961 37.4772 78.4203 42.3876C78.6131 42.8331 78.8053 43.2774 79 43.7168C76.9783 45.3599 74.9565 47.0031 72.9347 48.646C72.6581 48.4017 72.3814 48.1575 72.1047 47.9132C71.827 47.6681 71.5494 47.423 71.2718 47.1778V66.0559C65.3203 68.6481 56.6798 68.6481 50.7282 66.0559V47.1778C50.174 47.6673 49.0653 48.646 49.0653 48.646ZM60.7805 41H59.812L59.1105 42.625L55.9381 42.3741L56.4663 44.5211L60.2522 45.8951H60.3403L60.3402 45.895H61.661L61.6609 45.8951H61.749L65.5349 44.5211L66.0631 42.3741L62.8027 42.6252L62.1011 41H61.1327V45.895H60.7805V41ZM58.4913 46.1529L59.2837 45.9811L58.6674 46.8399V49.5021L56.5544 47.7846V44.8647L57.5229 45.2082L58.4913 46.1529ZM63.4218 46.1529L62.6294 45.9811L63.2457 46.8399V49.5021L65.3588 47.7846V44.8647L64.3903 45.2082L63.4218 46.1529ZM59.6359 45.9809L58.9315 47.0115V50.876L59.4598 51.6489L60.0761 52.25H61.837L62.4533 51.6489L62.9816 50.876V47.0115L62.2772 45.9809L61.837 46.2386H60.0761L59.6359 45.9809ZM63.2457 51.1336L64.3903 50.0172V48.9008L63.2457 49.8455V51.1336ZM57.5229 50.0172L58.6674 51.1336V49.8455L57.5229 48.9008V50.0172ZM64.8305 42.2023L62.9816 42.374L62.3653 41H63.5979L64.8305 42.2023ZM58.9316 42.374L57.0827 42.2023L58.3153 41H59.5479L58.9316 42.374Z" fill="#BBC7CD"/>
<rect x="25" y="103" width="32" height="3" rx="1.5" fill="#BBC7CD"/>
<rect x="25" y="92" width="40" height="3" rx="1.5" fill="#BBC7CD"/>
<g filter="url(#filter1_d_1206_10199)">
<rect x="105" y="20" width="72" height="60" rx="3" fill="white"/>
</g>
<path fill-rule="evenodd" clip-rule="evenodd" d="M129.065 48.646C129.065 48.646 125.022 45.3599 123 43.7168C123.195 43.2773 123.387 42.833 123.58 42.3874C125.704 37.4771 127.896 32.4099 134.25 32C135.418 36.147 146.582 36.147 147.75 32C154.104 32.4099 156.296 37.4772 158.42 42.3876C158.613 42.8331 158.805 43.2774 159 43.7168C156.978 45.3599 154.957 47.0031 152.935 48.646C152.658 48.4017 152.381 48.1575 152.105 47.9132C151.827 47.6681 151.549 47.423 151.272 47.1778V66.0559C145.32 68.6481 136.68 68.6481 130.728 66.0559V47.1778C130.174 47.6673 129.065 48.646 129.065 48.646ZM140.78 41H139.812L139.111 42.625L135.938 42.3741L136.466 44.5211L140.252 45.8951H140.34L140.34 45.895H141.661L141.661 45.8951H141.749L145.535 44.5211L146.063 42.3741L142.803 42.6252L142.101 41H141.133V45.895H140.78V41ZM138.491 46.1529L139.284 45.9811L138.667 46.8399V49.5021L136.554 47.7846V44.8647L137.523 45.2082L138.491 46.1529ZM143.422 46.1529L142.629 45.9811L143.246 46.8399V49.5021L145.359 47.7846V44.8647L144.39 45.2082L143.422 46.1529ZM139.636 45.9809L138.932 47.0115V50.876L139.46 51.6489L140.076 52.25H141.837L142.453 51.6489L142.982 50.876V47.0115L142.277 45.9809L141.837 46.2386H140.076L139.636 45.9809ZM143.246 51.1336L144.39 50.0172V48.9008L143.246 49.8455V51.1336ZM137.523 50.0172L138.667 51.1336V49.8455L137.523 48.9008V50.0172ZM144.831 42.2023L142.982 42.374L142.365 41H143.598L144.831 42.2023ZM138.932 42.374L137.083 42.2023L138.315 41H139.548L138.932 42.374Z" fill="#BBC7CD"/>
<rect x="105" y="103" width="26" height="3" rx="1.5" fill="#BBC7CD"/>
<rect x="105" y="92" width="37" height="3" rx="1.5" fill="#BBC7CD"/>
<g filter="url(#filter2_d_1206_10199)">
<rect x="185" y="20" width="72" height="60" rx="3" fill="white"/>
</g>
<rect x="185" y="103" width="51" height="3" rx="1.5" fill="#BBC7CD"/>
<rect x="185" y="92" width="31" height="3" rx="1.5" fill="#BBC7CD"/>
<path fill-rule="evenodd" clip-rule="evenodd" d="M209.065 48.646C209.065 48.646 205.022 45.3599 203 43.7168C203.195 43.2773 203.387 42.833 203.58 42.3874C205.704 37.4771 207.896 32.4099 214.25 32C215.418 36.147 226.582 36.147 227.75 32C234.104 32.4099 236.296 37.4772 238.42 42.3876C238.613 42.8331 238.805 43.2774 239 43.7168C236.978 45.3599 234.957 47.0031 232.935 48.646C232.658 48.4017 232.381 48.1575 232.105 47.9132C231.827 47.6681 231.549 47.423 231.272 47.1778V66.0559C225.32 68.6481 216.68 68.6481 210.728 66.0559V47.1778C210.174 47.6673 209.065 48.646 209.065 48.646ZM220.78 41H219.812L219.111 42.625L215.938 42.3741L216.466 44.5211L220.252 45.8951H220.34L220.34 45.895H221.661L221.661 45.8951H221.749L225.535 44.5211L226.063 42.3741L222.803 42.6252L222.101 41H221.133V45.895H220.78V41ZM218.491 46.1529L219.284 45.9811L218.667 46.8399V49.5021L216.554 47.7846V44.8647L217.523 45.2082L218.491 46.1529ZM223.422 46.1529L222.629 45.9811L223.246 46.8399V49.5021L225.359 47.7846V44.8647L224.39 45.2082L223.422 46.1529ZM219.636 45.9809L218.932 47.0115V50.876L219.46 51.6489L220.076 52.25H221.837L222.453 51.6489L222.982 50.876V47.0115L222.277 45.9809L221.837 46.2386H220.076L219.636 45.9809ZM223.246 51.1336L224.39 50.0172V48.9008L223.246 49.8455V51.1336ZM217.523 50.0172L218.667 51.1336V49.8455L217.523 48.9008V50.0172ZM224.831 42.2023L222.982 42.374L222.365 41H223.598L224.831 42.2023ZM218.932 42.374L217.083 42.2023L218.315 41H219.548L218.932 42.374Z" fill="#BBC7CD"/>
</g>
<g filter="url(#filter3_d_1206_10199)">
<rect x="70" y="26" width="144" height="79" rx="3" fill="white"/>
</g>
<path fill-rule="evenodd" clip-rule="evenodd" d="M90.2555 63.6571C90.2555 63.6571 84.7517 59.1843 82 56.9478C82.265 56.3497 82.5267 55.7449 82.7891 55.1384C85.6804 48.4549 88.6642 41.5579 97.3124 41C98.9022 46.6445 114.098 46.6445 115.687 41C124.336 41.5579 127.32 48.4551 130.211 55.1386C130.473 55.7451 130.735 56.3498 131 56.9478C128.248 59.1843 125.496 61.4208 122.744 63.6571C122.367 63.324 121.99 62.9909 121.613 62.6579C121.235 62.3248 120.858 61.9918 120.481 61.6587V87.3539C112.38 90.8822 100.62 90.8822 92.5189 87.3539V61.6587C91.7646 62.3249 90.2555 63.6571 90.2555 63.6571ZM105.482 59.9127L100.329 58.0424L99.6102 55.1202L103.928 55.4617L104.883 53.25H106.201V59.9127H105.482L105.482 59.9127ZM106.681 53.25V59.9127H107.519L107.519 59.9127H107.52L112.673 58.0424L113.392 55.1202L108.954 55.4619L107.999 53.25H106.681ZM103.085 60.2637L104.164 60.0299L103.325 61.1988V64.8224L100.449 62.4846V58.5103L101.767 58.9779L103.085 60.2637ZM109.796 60.2637L108.718 60.0299L109.557 61.1988V64.8224L112.433 62.4846V58.5103L111.115 58.9779L109.796 60.2637ZM104.643 60.0296L103.685 61.4323V66.6923L104.404 67.7443L105.243 68.5626H107.639L108.478 67.7443L109.197 66.6923V61.4323L108.238 60.0296L107.639 60.3803H105.243L104.643 60.0296ZM109.557 67.0431L111.115 65.5235V64.004L109.557 65.2898V67.0431ZM101.767 65.5235L103.325 67.0431V65.2898L101.767 64.004V65.5235ZM111.714 54.8865L109.197 55.1202L108.358 53.25H110.036L111.714 54.8865ZM103.685 55.1202L101.168 54.8865L102.846 53.25H104.524L103.685 55.1202Z" fill="#BBC7CD"/>
<rect x="146" y="84" width="40" height="10" rx="5" fill="#263238"/>
<rect x="156" y="88" width="20" height="2" rx="1" fill="#BBC7CD"/>
<path d="M151.208 65.592C151.34 65.592 151.4 65.52 151.4 65.4V64.128C151.4 63.036 150.836 62.436 149.768 62.4V61.692C149.768 61.572 149.696 61.5 149.576 61.5H148.412C148.28 61.5 148.22 61.572 148.22 61.692V62.4C147.176 62.436 146.6 63.036 146.6 64.128V66.96C146.6 67.188 146.708 67.332 146.924 67.404L149.768 68.34V69.936C149.768 70.26 149.6 70.416 149.288 70.416H148.712C148.412 70.416 148.232 70.26 148.232 69.936V69.012C148.232 68.88 148.172 68.82 148.04 68.82H146.792C146.672 68.82 146.6 68.88 146.6 69.012V70.272C146.6 71.364 147.176 71.964 148.22 72V72.708C148.22 72.828 148.28 72.9 148.412 72.9H149.576C149.696 72.9 149.768 72.828 149.768 72.708V72C150.836 71.964 151.4 71.364 151.4 70.272V67.5C151.4 67.272 151.292 67.14 151.088 67.056L148.232 66.12V64.464C148.232 64.152 148.412 63.984 148.712 63.984H149.288C149.612 63.984 149.768 64.152 149.768 64.464V65.4C149.768 65.52 149.84 65.592 149.96 65.592H151.208ZM157.076 67.404C157.304 67.284 157.4 67.188 157.4 66.96V64.128C157.4 63 156.788 62.4 155.672 62.4H154.328C153.2 62.4 152.6 63 152.6 64.128V65.4C152.6 65.52 152.66 65.592 152.792 65.592H154.04C154.16 65.592 154.232 65.52 154.232 65.4V64.464C154.232 64.152 154.388 63.984 154.712 63.984H155.288C155.588 63.984 155.768 64.152 155.768 64.464V66.24L152.912 67.776C152.684 67.896 152.6 67.992 152.6 68.22V71.76C152.6 71.916 152.684 72 152.84 72H157.16C157.316 72 157.4 71.916 157.4 71.76V69.924C157.4 69.768 157.316 69.684 157.16 69.684H156.008C155.852 69.684 155.768 69.768 155.768 69.924V70.416H154.472C154.316 70.416 154.232 70.332 154.232 70.176V69.132C154.232 69 154.28 68.916 154.4 68.844L157.076 67.404ZM163.295 64.128C163.295 63 162.683 62.4 161.555 62.4H160.163C159.071 62.4 158.483 62.952 158.483 63.984V64.476C158.483 64.632 158.567 64.716 158.723 64.716H159.875C160.031 64.716 160.115 64.632 160.115 64.476V63.984H161.459C161.615 63.984 161.699 64.068 161.699 64.224V65.94C161.699 66.24 161.531 66.408 161.219 66.408H159.803C159.647 66.408 159.563 66.492 159.563 66.648V67.752C159.563 67.908 159.647 67.992 159.803 67.992H161.219C161.543 67.992 161.699 68.16 161.699 68.472V70.176C161.699 70.332 161.615 70.416 161.459 70.416H160.115V69.924C160.115 69.768 160.031 69.684 159.875 69.684H158.723C158.567 69.684 158.483 69.768 158.483 69.924V70.32C158.483 71.412 159.071 72 160.163 72H161.555C162.683 72 163.295 71.4 163.295 70.272V68.064C163.295 67.62 162.971 67.284 162.539 67.212V67.188C162.971 67.116 163.295 66.78 163.295 66.336V64.128ZM164.495 71.76C164.495 71.916 164.579 72 164.735 72H165.035L164.555 73.056C164.519 73.14 164.555 73.2 164.651 73.2H165.191C165.263 73.2 165.299 73.176 165.335 73.116L165.983 72.132C166.043 72.036 166.067 71.952 166.067 71.832V70.656C166.067 70.5 165.983 70.416 165.827 70.416H164.735C164.579 70.416 164.495 70.5 164.495 70.656V71.76ZM168.801 68.292L167.349 71.724C167.277 71.892 167.349 72 167.529 72H168.777C168.921 72 169.005 71.94 169.053 71.82L170.757 67.764C170.841 67.548 170.877 67.392 170.877 67.164V64.08C170.877 62.988 170.289 62.4 169.197 62.4H167.757C166.665 62.4 166.077 62.988 166.077 64.08V66.612C166.077 67.704 166.665 68.292 167.757 68.292H168.801ZM168.813 63.984C169.125 63.984 169.293 64.152 169.293 64.464V66.228C169.293 66.54 169.125 66.708 168.813 66.708H168.141C167.829 66.708 167.661 66.54 167.661 66.228V64.464C167.661 64.152 167.829 63.984 168.141 63.984H168.813ZM172.077 70.272C172.077 71.4 172.677 72 173.805 72H175.149C176.277 72 176.877 71.4 176.877 70.272V64.128C176.877 63 176.277 62.4 175.149 62.4H173.805C172.677 62.4 172.077 63 172.077 64.128V70.272ZM174.153 70.452C173.841 70.452 173.673 70.296 173.673 69.972V64.428C173.673 64.116 173.841 63.948 174.153 63.948H174.849C175.161 63.948 175.329 64.116 175.329 64.428V69.972C175.329 70.296 175.161 70.452 174.849 70.452H174.153Z" fill="#9CAEB7"/>
<rect x="146" y="49" width="36" height="3" rx="1.5" fill="#BBC7CD"/>
<rect x="146" y="38" width="56" height="3" rx="1.5" fill="#263238"/>
<defs>
<filter id="filter0_d_1206_10199" x="23" y="20" width="76" height="64" filterUnits="userSpaceOnUse" color-interpolation-filters="sRGB">
<feFlood flood-opacity="0" result="BackgroundImageFix"/>
<feColorMatrix in="SourceAlpha" type="matrix" values="0 0 0 0 0 0 0 0 0 0 0 0 0 0 0 0 0 0 127 0" result="hardAlpha"/>
<feOffset dy="2"/>
<feGaussianBlur stdDeviation="1"/>
<feColorMatrix type="matrix" values="0 0 0 0 0 0 0 0 0 0 0 0 0 0 0 0 0 0 0.03 0"/>
<feBlend mode="normal" in2="BackgroundImageFix" result="effect1_dropShadow_1206_10199"/>
<feBlend mode="normal" in="SourceGraphic" in2="effect1_dropShadow_1206_10199" result="shape"/>
</filter>
<filter id="filter1_d_1206_10199" x="103" y="20" width="76" height="64" filterUnits="userSpaceOnUse" color-interpolation-filters="sRGB">
<feFlood flood-opacity="0" result="BackgroundImageFix"/>
<feColorMatrix in="SourceAlpha" type="matrix" values="0 0 0 0 0 0 0 0 0 0 0 0 0 0 0 0 0 0 127 0" result="hardAlpha"/>
<feOffset dy="2"/>
<feGaussianBlur stdDeviation="1"/>
<feColorMatrix type="matrix" values="0 0 0 0 0 0 0 0 0 0 0 0 0 0 0 0 0 0 0.03 0"/>
<feBlend mode="normal" in2="BackgroundImageFix" result="effect1_dropShadow_1206_10199"/>
<feBlend mode="normal" in="SourceGraphic" in2="effect1_dropShadow_1206_10199" result="shape"/>
</filter>
<filter id="filter2_d_1206_10199" x="183" y="20" width="76" height="64" filterUnits="userSpaceOnUse" color-interpolation-filters="sRGB">
<feFlood flood-opacity="0" result="BackgroundImageFix"/>
<feColorMatrix in="SourceAlpha" type="matrix" values="0 0 0 0 0 0 0 0 0 0 0 0 0 0 0 0 0 0 127 0" result="hardAlpha"/>
<feOffset dy="2"/>
<feGaussianBlur stdDeviation="1"/>
<feColorMatrix type="matrix" values="0 0 0 0 0 0 0 0 0 0 0 0 0 0 0 0 0 0 0.03 0"/>
<feBlend mode="normal" in2="BackgroundImageFix" result="effect1_dropShadow_1206_10199"/>
<feBlend mode="normal" in="SourceGraphic" in2="effect1_dropShadow_1206_10199" result="shape"/>
</filter>
<filter id="filter3_d_1206_10199" x="68" y="26" width="148" height="83" filterUnits="userSpaceOnUse" color-interpolation-filters="sRGB">
<feFlood flood-opacity="0" result="BackgroundImageFix"/>
<feColorMatrix in="SourceAlpha" type="matrix" values="0 0 0 0 0 0 0 0 0 0 0 0 0 0 0 0 0 0 127 0" result="hardAlpha"/>
<feOffset dy="2"/>
<feGaussianBlur stdDeviation="1"/>
<feColorMatrix type="matrix" values="0 0 0 0 0 0 0 0 0 0 0 0 0 0 0 0 0 0 0.03 0"/>
<feBlend mode="normal" in2="BackgroundImageFix" result="effect1_dropShadow_1206_10199"/>
<feBlend mode="normal" in="SourceGraphic" in2="effect1_dropShadow_1206_10199" result="shape"/>
</filter>
</defs>
</svg>
