<svg width="283" height="132" viewBox="0 0 283 132" fill="none" xmlns="http://www.w3.org/2000/svg">
<rect x="1" y="1" width="281" height="130" rx="3" fill="#F5F7F8" stroke="#BBC7CD" stroke-width="2"/>
<g filter="url(#filter0_d_1206_10151)">
<rect x="31" y="12" width="40" height="40" rx="3" fill="white"/>
</g>
<g filter="url(#filter1_d_1206_10151)">
<rect x="155" y="12" width="115" height="61" rx="3" fill="#BBC7CD"/>
</g>
<rect x="155" y="85" width="61" height="10" rx="5" fill="#263238"/>
<rect x="176" y="89" width="20" height="2" rx="1" fill="#BBC7CD"/>
<rect x="163" y="39" width="23" height="3" rx="1.5" fill="white"/>
<rect x="163" y="50" width="36" height="3" rx="1.5" fill="white"/>
<rect x="163" y="24" width="43" height="3" rx="1.5" fill="#263238"/>
<rect opacity="0.5" y="64" width="141" height="1" fill="#BBC7CD"/>
<path d="M90.208 43.592C90.34 43.592 90.4 43.52 90.4 43.4V42.128C90.4 41.036 89.836 40.436 88.768 40.4V39.692C88.768 39.572 88.696 39.5 88.576 39.5H87.412C87.28 39.5 87.22 39.572 87.22 39.692V40.4C86.176 40.436 85.6 41.036 85.6 42.128V44.96C85.6 45.188 85.708 45.332 85.924 45.404L88.768 46.34V47.936C88.768 48.26 88.6 48.416 88.288 48.416H87.712C87.412 48.416 87.232 48.26 87.232 47.936V47.012C87.232 46.88 87.172 46.82 87.04 46.82H85.792C85.672 46.82 85.6 46.88 85.6 47.012V48.272C85.6 49.364 86.176 49.964 87.22 50V50.708C87.22 50.828 87.28 50.9 87.412 50.9H88.576C88.696 50.9 88.768 50.828 88.768 50.708V50C89.836 49.964 90.4 49.364 90.4 48.272V45.5C90.4 45.272 90.292 45.14 90.088 45.056L87.232 44.12V42.464C87.232 42.152 87.412 41.984 87.712 41.984H88.288C88.612 41.984 88.768 42.152 88.768 42.464V43.4C88.768 43.52 88.84 43.592 88.96 43.592H90.208ZM96.076 45.404C96.304 45.284 96.4 45.188 96.4 44.96V42.128C96.4 41 95.788 40.4 94.672 40.4H93.328C92.2 40.4 91.6 41 91.6 42.128V43.4C91.6 43.52 91.66 43.592 91.792 43.592H93.04C93.16 43.592 93.232 43.52 93.232 43.4V42.464C93.232 42.152 93.388 41.984 93.712 41.984H94.288C94.588 41.984 94.768 42.152 94.768 42.464V44.24L91.912 45.776C91.684 45.896 91.6 45.992 91.6 46.22V49.76C91.6 49.916 91.684 50 91.84 50H96.16C96.316 50 96.4 49.916 96.4 49.76V47.924C96.4 47.768 96.316 47.684 96.16 47.684H95.008C94.852 47.684 94.768 47.768 94.768 47.924V48.416H93.472C93.316 48.416 93.232 48.332 93.232 48.176V47.132C93.232 47 93.28 46.916 93.4 46.844L96.076 45.404ZM102.295 42.128C102.295 41 101.683 40.4 100.555 40.4H99.1628C98.0708 40.4 97.4828 40.952 97.4828 41.984V42.476C97.4828 42.632 97.5668 42.716 97.7228 42.716H98.8748C99.0308 42.716 99.1148 42.632 99.1148 42.476V41.984H100.459C100.615 41.984 100.699 42.068 100.699 42.224V43.94C100.699 44.24 100.531 44.408 100.219 44.408H98.8028C98.6468 44.408 98.5628 44.492 98.5628 44.648V45.752C98.5628 45.908 98.6468 45.992 98.8028 45.992H100.219C100.543 45.992 100.699 46.16 100.699 46.472V48.176C100.699 48.332 100.615 48.416 100.459 48.416H99.1148V47.924C99.1148 47.768 99.0308 47.684 98.8748 47.684H97.7228C97.5668 47.684 97.4828 47.768 97.4828 47.924V48.32C97.4828 49.412 98.0708 50 99.1628 50H100.555C101.683 50 102.295 49.4 102.295 48.272V46.064C102.295 45.62 101.971 45.284 101.539 45.212V45.188C101.971 45.116 102.295 44.78 102.295 44.336V42.128ZM103.495 49.76C103.495 49.916 103.579 50 103.735 50H104.035L103.555 51.056C103.519 51.14 103.555 51.2 103.651 51.2H104.191C104.263 51.2 104.299 51.176 104.335 51.116L104.983 50.132C105.043 50.036 105.067 49.952 105.067 49.832V48.656C105.067 48.5 104.983 48.416 104.827 48.416H103.735C103.579 48.416 103.495 48.5 103.495 48.656V49.76ZM107.801 46.292L106.349 49.724C106.277 49.892 106.349 50 106.529 50H107.777C107.921 50 108.005 49.94 108.053 49.82L109.757 45.764C109.841 45.548 109.877 45.392 109.877 45.164V42.08C109.877 40.988 109.289 40.4 108.197 40.4H106.757C105.665 40.4 105.077 40.988 105.077 42.08V44.612C105.077 45.704 105.665 46.292 106.757 46.292H107.801ZM107.813 41.984C108.125 41.984 108.293 42.152 108.293 42.464V44.228C108.293 44.54 108.125 44.708 107.813 44.708H107.141C106.829 44.708 106.661 44.54 106.661 44.228V42.464C106.661 42.152 106.829 41.984 107.141 41.984H107.813ZM111.077 48.272C111.077 49.4 111.677 50 112.805 50H114.149C115.277 50 115.877 49.4 115.877 48.272V42.128C115.877 41 115.277 40.4 114.149 40.4H112.805C111.677 40.4 111.077 41 111.077 42.128V48.272ZM113.153 48.452C112.841 48.452 112.673 48.296 112.673 47.972V42.428C112.673 42.116 112.841 41.948 113.153 41.948H113.849C114.161 41.948 114.329 42.116 114.329 42.428V47.972C114.329 48.296 114.161 48.452 113.849 48.452H113.153Z" fill="#9CAEB7"/>
<rect x="85" y="25" width="23" height="3" rx="1.5" fill="#BBC7CD"/>
<rect x="85" y="14" width="36" height="3" rx="1.5" fill="#263238"/>
<path fill-rule="evenodd" clip-rule="evenodd" d="M43.0435 31.0974L39 27.8112C39.1298 27.5182 39.258 27.222 39.3865 26.9249C40.8027 23.6514 42.2641 20.2733 46.4999 20C47.2786 22.7646 54.7213 22.7646 55.5 20C59.7359 20.2733 61.1974 23.6515 62.6136 26.9251C62.7421 27.2221 62.8702 27.5183 63 27.8112L58.9565 31.0974L57.8479 30.1185V42.704C53.8802 44.4321 48.1199 44.4321 44.1521 42.704V30.1185L43.0435 31.0974ZM50.5015 29.2633L47.9776 28.3473L47.6254 26.916L49.7404 27.0833L50.208 26H50.8537V29.2634H50.5015L50.5015 29.2633ZM51.0885 26V29.2634H51.4993L51.4993 29.2633L54.0232 28.3473L54.3754 26.916L52.2018 27.0834L51.7341 26H51.0885ZM49.3276 29.4353L49.8559 29.3208L49.445 29.8933V31.6681L48.0363 30.5231V28.5765L48.682 28.8055L49.3276 29.4353ZM52.6145 29.4353L52.0863 29.3208L52.4971 29.8933V31.6681L53.9058 30.5231V28.5765L53.2602 28.8055L52.6145 29.4353ZM50.0907 29.3206L49.6211 30.0077V32.584L49.9733 33.0993L50.3841 33.5H51.5581L51.9689 33.0993L52.3211 32.584V30.0077L51.8515 29.3206L51.5581 29.4924H50.3841L50.0907 29.3206ZM52.4972 32.7558L53.2602 32.0115V31.2673L52.4972 31.897V32.7558ZM48.6819 32.0115L49.445 32.7558V31.897L48.6819 31.2673V32.0115ZM53.5537 26.8015L52.3211 26.916L51.9102 26H52.732L53.5537 26.8015ZM49.6211 26.916L48.3885 26.8015L49.2102 26H50.032L49.6211 26.916Z" fill="#BBC7CD"/>
<g filter="url(#filter2_d_1206_10151)">
<rect x="31" y="77" width="40" height="40" rx="3" fill="white"/>
</g>
<path d="M90.208 108.592C90.34 108.592 90.4 108.52 90.4 108.4V107.128C90.4 106.036 89.836 105.436 88.768 105.4V104.692C88.768 104.572 88.696 104.5 88.576 104.5H87.412C87.28 104.5 87.22 104.572 87.22 104.692V105.4C86.176 105.436 85.6 106.036 85.6 107.128V109.96C85.6 110.188 85.708 110.332 85.924 110.404L88.768 111.34V112.936C88.768 113.26 88.6 113.416 88.288 113.416H87.712C87.412 113.416 87.232 113.26 87.232 112.936V112.012C87.232 111.88 87.172 111.82 87.04 111.82H85.792C85.672 111.82 85.6 111.88 85.6 112.012V113.272C85.6 114.364 86.176 114.964 87.22 115V115.708C87.22 115.828 87.28 115.9 87.412 115.9H88.576C88.696 115.9 88.768 115.828 88.768 115.708V115C89.836 114.964 90.4 114.364 90.4 113.272V110.5C90.4 110.272 90.292 110.14 90.088 110.056L87.232 109.12V107.464C87.232 107.152 87.412 106.984 87.712 106.984H88.288C88.612 106.984 88.768 107.152 88.768 107.464V108.4C88.768 108.52 88.84 108.592 88.96 108.592H90.208ZM91.828 105.7C91.672 105.712 91.6 105.796 91.6 105.952V107.104C91.6 107.26 91.696 107.344 91.852 107.32L92.596 107.224V114.808C92.596 114.928 92.656 115 92.788 115H94.036C94.156 115 94.228 114.928 94.228 114.808V105.592C94.228 105.472 94.156 105.4 94.036 105.4L91.828 105.7ZM95.5492 113.272C95.5492 114.4 96.1492 115 97.2772 115H98.6212C99.7492 115 100.349 114.4 100.349 113.272V107.128C100.349 106 99.7492 105.4 98.6212 105.4H97.2772C96.1492 105.4 95.5492 106 95.5492 107.128V113.272ZM97.6252 113.452C97.3132 113.452 97.1452 113.296 97.1452 112.972V107.428C97.1452 107.116 97.3132 106.948 97.6252 106.948H98.3212C98.6332 106.948 98.8012 107.116 98.8012 107.428V112.972C98.8012 113.296 98.6332 113.452 98.3212 113.452H97.6252ZM101.549 114.76C101.549 114.916 101.633 115 101.789 115H102.089L101.609 116.056C101.573 116.14 101.609 116.2 101.705 116.2H102.245C102.317 116.2 102.353 116.176 102.389 116.116L103.037 115.132C103.097 115.036 103.121 114.952 103.121 114.832V113.656C103.121 113.5 103.037 113.416 102.881 113.416H101.789C101.633 113.416 101.549 113.5 101.549 113.656V114.76ZM104.327 113.272C104.327 114.4 104.927 115 106.055 115H107.399C108.527 115 109.127 114.4 109.127 113.272V107.128C109.127 106 108.527 105.4 107.399 105.4H106.055C104.927 105.4 104.327 106 104.327 107.128V113.272ZM106.403 113.452C106.091 113.452 105.923 113.296 105.923 112.972V107.428C105.923 107.116 106.091 106.948 106.403 106.948H107.099C107.411 106.948 107.579 107.116 107.579 107.428V112.972C107.579 113.296 107.411 113.452 107.099 113.452H106.403ZM110.327 113.272C110.327 114.4 110.927 115 112.055 115H113.399C114.527 115 115.127 114.4 115.127 113.272V107.128C115.127 106 114.527 105.4 113.399 105.4H112.055C110.927 105.4 110.327 106 110.327 107.128V113.272ZM112.403 113.452C112.091 113.452 111.923 113.296 111.923 112.972V107.428C111.923 107.116 112.091 106.948 112.403 106.948H113.099C113.411 106.948 113.579 107.116 113.579 107.428V112.972C113.579 113.296 113.411 113.452 113.099 113.452H112.403Z" fill="#9CAEB7"/>
<rect x="85" y="90" width="34" height="3" rx="1.5" fill="#BBC7CD"/>
<rect x="85" y="79" width="28" height="3" rx="1.5" fill="#263238"/>
<path fill-rule="evenodd" clip-rule="evenodd" d="M43.0435 96.0974L39 92.8112C39.1298 92.5182 39.258 92.222 39.3865 91.9249C40.8027 88.6514 42.2641 85.2733 46.5 85C47.2786 87.7646 54.7213 87.7646 55.5 85C59.7359 85.2733 61.1974 88.6515 62.6136 91.9251C62.7421 92.2221 62.8702 92.5183 63 92.8112L58.9565 96.0974L57.8479 95.1185V107.704C53.8802 109.432 48.1199 109.432 44.1521 107.704V95.1185L43.0435 96.0974ZM50.5015 94.2633L47.9776 93.3473L47.6254 91.916L49.7404 92.0833L50.208 91H50.8537V94.2634H50.5015L50.5015 94.2633ZM51.0885 91V94.2634H51.4993L51.4993 94.2633L54.0232 93.3473L54.3754 91.916L52.2018 92.0834L51.7341 91H51.0885ZM49.3276 94.4353L49.8559 94.3208L49.445 94.8933V96.6681L48.0363 95.5231V93.5765L48.682 93.8055L49.3276 94.4353ZM52.6145 94.4353L52.0863 94.3208L52.4971 94.8933V96.6681L53.9058 95.5231V93.5765L53.2602 93.8055L52.6145 94.4353ZM50.0907 94.3206L49.6211 95.0077V97.584L49.9733 98.0993L50.3841 98.5H51.5581L51.9689 98.0993L52.3211 97.584V95.0077L51.8515 94.3206L51.5581 94.4924H50.3841L50.0907 94.3206ZM52.4972 97.7558L53.2602 97.0115V96.2673L52.4972 96.897V97.7558ZM48.6819 97.0115L49.445 97.7558V96.897L48.6819 96.2673V97.0115ZM53.5537 91.8015L52.3211 91.916L51.9102 91H52.732L53.5537 91.8015ZM49.6211 91.916L48.3885 91.8015L49.2102 91H50.032L49.6211 91.916Z" fill="#BBC7CD"/>
<defs>
<filter id="filter0_d_1206_10151" x="29" y="12" width="44" height="44" filterUnits="userSpaceOnUse" color-interpolation-filters="sRGB">
<feFlood flood-opacity="0" result="BackgroundImageFix"/>
<feColorMatrix in="SourceAlpha" type="matrix" values="0 0 0 0 0 0 0 0 0 0 0 0 0 0 0 0 0 0 127 0" result="hardAlpha"/>
<feOffset dy="2"/>
<feGaussianBlur stdDeviation="1"/>
<feColorMatrix type="matrix" values="0 0 0 0 0 0 0 0 0 0 0 0 0 0 0 0 0 0 0.03 0"/>
<feBlend mode="normal" in2="BackgroundImageFix" result="effect1_dropShadow_1206_10151"/>
<feBlend mode="normal" in="SourceGraphic" in2="effect1_dropShadow_1206_10151" result="shape"/>
</filter>
<filter id="filter1_d_1206_10151" x="153" y="12" width="119" height="65" filterUnits="userSpaceOnUse" color-interpolation-filters="sRGB">
<feFlood flood-opacity="0" result="BackgroundImageFix"/>
<feColorMatrix in="SourceAlpha" type="matrix" values="0 0 0 0 0 0 0 0 0 0 0 0 0 0 0 0 0 0 127 0" result="hardAlpha"/>
<feOffset dy="2"/>
<feGaussianBlur stdDeviation="1"/>
<feColorMatrix type="matrix" values="0 0 0 0 0 0 0 0 0 0 0 0 0 0 0 0 0 0 0.03 0"/>
<feBlend mode="normal" in2="BackgroundImageFix" result="effect1_dropShadow_1206_10151"/>
<feBlend mode="normal" in="SourceGraphic" in2="effect1_dropShadow_1206_10151" result="shape"/>
</filter>
<filter id="filter2_d_1206_10151" x="29" y="77" width="44" height="44" filterUnits="userSpaceOnUse" color-interpolation-filters="sRGB">
<feFlood flood-opacity="0" result="BackgroundImageFix"/>
<feColorMatrix in="SourceAlpha" type="matrix" values="0 0 0 0 0 0 0 0 0 0 0 0 0 0 0 0 0 0 127 0" result="hardAlpha"/>
<feOffset dy="2"/>
<feGaussianBlur stdDeviation="1"/>
<feColorMatrix type="matrix" values="0 0 0 0 0 0 0 0 0 0 0 0 0 0 0 0 0 0 0.03 0"/>
<feBlend mode="normal" in2="BackgroundImageFix" result="effect1_dropShadow_1206_10151"/>
<feBlend mode="normal" in="SourceGraphic" in2="effect1_dropShadow_1206_10151" result="shape"/>
</filter>
</defs>
</svg>
