<svg width="283" height="132" viewBox="0 0 283 132" fill="none" xmlns="http://www.w3.org/2000/svg">
<rect width="283" height="132" rx="4" fill="white" fill-opacity="0.15"/>
<rect x="1" y="1" width="281" height="130" rx="3" stroke="#BBC7CD" stroke-opacity="0.5" stroke-width="2"/>
<mask id="mask0_2274_23623" style="mask-type:alpha" maskUnits="userSpaceOnUse" x="2" y="58" width="279" height="72">
<path d="M2 58H281V128C281 129.105 280.105 130 279 130H4C2.89543 130 2 129.105 2 128V58Z" fill="white"/>
</mask>
<g mask="url(#mask0_2274_23623)">
<g filter="url(#filter0_d_2274_23623)">
<rect x="162.956" y="18.1279" width="72" height="60" rx="3" transform="rotate(20 162.956 18.1279)" fill="#212121"/>
</g>
<path fill-rule="evenodd" clip-rule="evenodd" d="M175.772 53.2771C175.772 53.2771 173.096 48.8062 171.758 46.5707C172.092 46.2244 172.424 45.8726 172.758 45.5198C176.433 41.6321 180.226 37.6203 186.337 39.4082C186.016 43.7046 196.507 47.5229 199.023 44.0255C204.854 46.5839 205.18 52.0953 205.497 57.4361C205.526 57.9208 205.554 58.404 205.587 58.8834C203.125 59.736 200.664 60.5886 198.202 61.441C198.025 61.1168 197.849 60.7926 197.672 60.4684C197.495 60.1432 197.318 59.8179 197.141 59.4925L190.685 77.2322C184.205 77.6325 176.086 74.6773 171.38 70.2059L177.837 52.4662C177.148 52.7366 175.772 53.2771 175.772 53.2771ZM189.396 50.0991L188.486 49.7678L187.271 51.0549L184.375 49.7341L184.137 51.9323L187.225 54.5183L187.308 54.5484L187.308 54.5483L188.549 55L188.549 55.0001L188.631 55.0302L192.659 55.0339L193.89 53.1971L190.74 52.3179L190.637 50.5507L189.727 50.2195L188.052 54.8193L187.721 54.6989L189.396 50.0991ZM185.482 54.1583L186.285 54.2679L185.413 54.8641L184.502 57.3657L183.104 55.0291L184.103 52.2853L184.895 52.9393L185.482 54.1583ZM190.115 55.8446L189.429 55.4122L189.715 56.4299L188.804 58.9316L191.377 58.0403L192.376 55.2966L191.348 55.2881L190.115 55.8446ZM186.616 54.3881L185.602 55.1156L184.28 58.7471L184.512 59.654L184.886 60.4297L186.541 61.032L187.325 60.6779L188.086 60.1322L189.408 56.5008L189.099 55.2915L188.597 55.383L186.942 54.7808L186.616 54.3881ZM188.246 60.4647L189.704 59.8071L190.086 58.758L188.687 59.2543L188.246 60.4647ZM183.25 57.4583L183.944 58.8989L184.385 57.6884L183.632 56.4092L183.25 57.4583ZM192.79 52.614L190.994 52.1431L190.885 50.6411L192.043 51.0627L192.79 52.614ZM187.188 50.7579L185.51 49.9641L187.079 49.2559L188.237 49.6775L187.188 50.7579Z" fill="#C2EFF5"/>
<g filter="url(#filter1_d_2274_23623)">
<rect x="228.641" y="68.6396" width="72" height="60" rx="3" transform="rotate(20 228.641 68.6396)" fill="#212121"/>
</g>
<path fill-rule="evenodd" clip-rule="evenodd" d="M241.457 103.789C241.457 103.789 238.782 99.3179 237.444 97.0824C237.777 96.7361 238.11 96.3843 238.443 96.0315C242.119 92.1438 245.912 88.132 252.023 89.92C251.702 94.2163 262.193 98.0347 264.709 94.5372C270.539 97.0956 270.866 102.607 271.183 107.948C271.211 108.432 271.24 108.916 271.273 109.395C268.811 110.248 266.349 111.1 263.887 111.953C263.711 111.629 263.534 111.304 263.358 110.98C263.181 110.655 263.004 110.33 262.827 110.004L256.37 127.744C249.891 128.144 241.772 125.189 237.065 120.718L243.522 102.978C242.834 103.248 241.457 103.789 241.457 103.789ZM255.081 100.611L254.171 100.28L252.956 101.567L250.061 100.246L249.823 102.444L252.911 105.03L252.993 105.06L252.993 105.06L254.234 105.512L254.234 105.512L254.317 105.542L258.345 105.546L259.575 103.709L256.426 102.83L256.322 101.062L255.412 100.731L253.738 105.331L253.407 105.211L255.081 100.611ZM251.168 104.67L251.971 104.78L251.098 105.376L250.188 107.877L248.789 105.541L249.788 102.797L250.581 103.451L251.168 104.67ZM255.801 106.356L255.115 105.924L255.4 106.942L254.49 109.443L257.063 108.552L258.062 105.808L257.034 105.8L255.801 106.356ZM252.302 104.9L251.288 105.627L249.966 109.259L250.198 110.166L250.572 110.941L252.226 111.544L253.011 111.19L253.772 110.644L255.093 107.013L254.784 105.803L254.282 105.895L252.628 105.293L252.302 104.9ZM253.932 110.976L255.389 110.319L255.771 109.27L254.372 109.766L253.932 110.976ZM248.936 107.97L249.63 109.411L250.07 108.2L249.318 106.921L248.936 107.97ZM258.476 103.126L256.68 102.655L256.57 101.153L257.729 101.574L258.476 103.126ZM252.874 101.27L251.195 100.476L252.765 99.7676L253.923 100.189L252.874 101.27Z" fill="#A0D2FA"/>
<g filter="url(#filter2_d_2274_23623)">
<rect x="138.672" y="84.8462" width="72" height="60" rx="3" transform="rotate(20 138.672 84.8462)" fill="#212121"/>
</g>
<path fill-rule="evenodd" clip-rule="evenodd" d="M151.489 119.995C151.489 119.995 148.813 115.524 147.475 113.289C147.808 112.943 148.141 112.591 148.474 112.238C152.15 108.35 155.943 104.339 162.054 106.127C161.733 110.423 172.224 114.241 174.74 110.744C180.57 113.302 180.897 118.814 181.214 124.154C181.243 124.639 181.271 125.122 181.304 125.602C178.842 126.454 176.38 127.307 173.919 128.159C173.742 127.835 173.566 127.511 173.389 127.187C173.212 126.861 173.035 126.536 172.858 126.211L166.401 143.95C159.922 144.351 151.803 141.396 147.097 136.924L153.553 119.184C152.865 119.455 151.489 119.995 151.489 119.995ZM165.112 116.817L164.202 116.486L162.987 117.773L160.092 116.452L159.854 118.651L162.942 121.237L163.025 121.267L163.025 121.267L164.266 121.718L164.266 121.718L164.348 121.748L168.376 121.752L169.607 119.915L166.457 119.036L166.353 117.269L165.443 116.938L163.769 121.538L163.438 121.417L165.112 116.817ZM161.199 120.877L162.002 120.986L161.129 121.582L160.219 124.084L158.821 121.747L159.819 119.004L160.612 119.658L161.199 120.877ZM165.832 122.563L165.146 122.13L165.432 123.148L164.521 125.65L167.094 124.759L168.093 122.015L167.065 122.006L165.832 122.563ZM162.333 121.106L161.319 121.834L159.997 125.465L160.229 126.372L160.603 127.148L162.257 127.75L163.042 127.396L163.803 126.851L165.125 123.219L164.815 122.01L164.314 122.101L162.659 121.499L162.333 121.106ZM163.963 127.183L165.42 126.525L165.802 125.476L164.404 125.973L163.963 127.183ZM158.967 124.177L159.661 125.617L160.101 124.407L159.349 123.127L158.967 124.177ZM168.507 119.332L166.711 118.861L166.602 117.359L167.76 117.781L168.507 119.332ZM162.905 117.476L161.226 116.682L162.796 115.974L163.954 116.396L162.905 117.476Z" fill="#BBC7CD"/>
</g>
<rect x="2" y="2" width="279" height="32" fill="#212121"/>
<rect x="2" y="34" width="279" height="24" fill="#212121"/>
<rect opacity="0.5" x="2" y="34" width="279" height="1" fill="#BBC7CD"/>
<rect x="26" y="45" width="16" height="3" rx="1.5" fill="#BBC7CD"/>
<rect x="54" y="45" width="16" height="3" rx="1.5" fill="#BBC7CD"/>
<rect x="26" y="74" width="61" height="3" rx="1.5" fill="white"/>
<rect x="26" y="85" width="41" height="3" rx="1.5" fill="white"/>
<rect x="26" y="100" width="53" height="3" rx="1.5" fill="#BBC7CD"/>
<rect x="26" y="111" width="29" height="3" rx="1.5" fill="#BBC7CD"/>
<rect x="82" y="45" width="16" height="3" rx="1.5" fill="#BBC7CD"/>
<rect x="110" y="45" width="16" height="3" rx="1.5" fill="#BBC7CD"/>
<rect x="138" y="45" width="16" height="3" rx="1.5" fill="#00BCD4"/>
<rect x="166" y="45" width="16" height="3" rx="1.5" fill="#BBC7CD"/>
<rect x="217" y="16" width="16" height="3" rx="1.5" fill="#BBC7CD"/>
<rect x="245" y="16" width="16" height="3" rx="1.5" fill="#BBC7CD"/>
<circle cx="34" cy="18" r="8" fill="#F57C00"/>
<defs>
<filter id="filter0_d_2274_23623" x="141.279" y="18.9722" width="90.4902" height="83.3184" filterUnits="userSpaceOnUse" color-interpolation-filters="sRGB">
<feFlood flood-opacity="0" result="BackgroundImageFix"/>
<feColorMatrix in="SourceAlpha" type="matrix" values="0 0 0 0 0 0 0 0 0 0 0 0 0 0 0 0 0 0 127 0" result="hardAlpha"/>
<feOffset dy="2"/>
<feGaussianBlur stdDeviation="1"/>
<feColorMatrix type="matrix" values="0 0 0 0 0 0 0 0 0 0 0 0 0 0 0 0 0 0 0.03 0"/>
<feBlend mode="normal" in2="BackgroundImageFix" result="effect1_dropShadow_2274_23623"/>
<feBlend mode="normal" in="SourceGraphic" in2="effect1_dropShadow_2274_23623" result="shape"/>
</filter>
<filter id="filter1_d_2274_23623" x="206.964" y="69.4839" width="90.4902" height="83.3184" filterUnits="userSpaceOnUse" color-interpolation-filters="sRGB">
<feFlood flood-opacity="0" result="BackgroundImageFix"/>
<feColorMatrix in="SourceAlpha" type="matrix" values="0 0 0 0 0 0 0 0 0 0 0 0 0 0 0 0 0 0 127 0" result="hardAlpha"/>
<feOffset dy="2"/>
<feGaussianBlur stdDeviation="1"/>
<feColorMatrix type="matrix" values="0 0 0 0 0 0 0 0 0 0 0 0 0 0 0 0 0 0 0.03 0"/>
<feBlend mode="normal" in2="BackgroundImageFix" result="effect1_dropShadow_2274_23623"/>
<feBlend mode="normal" in="SourceGraphic" in2="effect1_dropShadow_2274_23623" result="shape"/>
</filter>
<filter id="filter2_d_2274_23623" x="116.996" y="85.6904" width="90.4902" height="83.3184" filterUnits="userSpaceOnUse" color-interpolation-filters="sRGB">
<feFlood flood-opacity="0" result="BackgroundImageFix"/>
<feColorMatrix in="SourceAlpha" type="matrix" values="0 0 0 0 0 0 0 0 0 0 0 0 0 0 0 0 0 0 127 0" result="hardAlpha"/>
<feOffset dy="2"/>
<feGaussianBlur stdDeviation="1"/>
<feColorMatrix type="matrix" values="0 0 0 0 0 0 0 0 0 0 0 0 0 0 0 0 0 0 0.03 0"/>
<feBlend mode="normal" in2="BackgroundImageFix" result="effect1_dropShadow_2274_23623"/>
<feBlend mode="normal" in="SourceGraphic" in2="effect1_dropShadow_2274_23623" result="shape"/>
</filter>
</defs>
</svg>
