<svg width="283" height="132" viewBox="0 0 283 132" fill="none" xmlns="http://www.w3.org/2000/svg">
<rect x="1" y="1" width="281" height="130" rx="3" fill="#ECEFF1" stroke="#BBC7CD" stroke-width="2"/>
<path d="M91.208 32.592C91.34 32.592 91.4 32.52 91.4 32.4V31.128C91.4 30.036 90.836 29.436 89.768 29.4V28.692C89.768 28.572 89.696 28.5 89.576 28.5H88.412C88.28 28.5 88.22 28.572 88.22 28.692V29.4C87.176 29.436 86.6 30.036 86.6 31.128V33.96C86.6 34.188 86.708 34.332 86.924 34.404L89.768 35.34V36.936C89.768 37.26 89.6 37.416 89.288 37.416H88.712C88.412 37.416 88.232 37.26 88.232 36.936V36.012C88.232 35.88 88.172 35.82 88.04 35.82H86.792C86.672 35.82 86.6 35.88 86.6 36.012V37.272C86.6 38.364 87.176 38.964 88.22 39V39.708C88.22 39.828 88.28 39.9 88.412 39.9H89.576C89.696 39.9 89.768 39.828 89.768 39.708V39C90.836 38.964 91.4 38.364 91.4 37.272V34.5C91.4 34.272 91.292 34.14 91.088 34.056L88.232 33.12V31.464C88.232 31.152 88.412 30.984 88.712 30.984H89.288C89.612 30.984 89.768 31.152 89.768 31.464V32.4C89.768 32.52 89.84 32.592 89.96 32.592H91.208ZM97.076 34.404C97.304 34.284 97.4 34.188 97.4 33.96V31.128C97.4 30 96.788 29.4 95.672 29.4H94.328C93.2 29.4 92.6 30 92.6 31.128V32.4C92.6 32.52 92.66 32.592 92.792 32.592H94.04C94.16 32.592 94.232 32.52 94.232 32.4V31.464C94.232 31.152 94.388 30.984 94.712 30.984H95.288C95.588 30.984 95.768 31.152 95.768 31.464V33.24L92.912 34.776C92.684 34.896 92.6 34.992 92.6 35.22V38.76C92.6 38.916 92.684 39 92.84 39H97.16C97.316 39 97.4 38.916 97.4 38.76V36.924C97.4 36.768 97.316 36.684 97.16 36.684H96.008C95.852 36.684 95.768 36.768 95.768 36.924V37.416H94.472C94.316 37.416 94.232 37.332 94.232 37.176V36.132C94.232 36 94.28 35.916 94.4 35.844L97.076 34.404ZM103.295 31.128C103.295 30 102.683 29.4 101.555 29.4H100.163C99.0708 29.4 98.4828 29.952 98.4828 30.984V31.476C98.4828 31.632 98.5668 31.716 98.7228 31.716H99.8748C100.031 31.716 100.115 31.632 100.115 31.476V30.984H101.459C101.615 30.984 101.699 31.068 101.699 31.224V32.94C101.699 33.24 101.531 33.408 101.219 33.408H99.8028C99.6468 33.408 99.5628 33.492 99.5628 33.648V34.752C99.5628 34.908 99.6468 34.992 99.8028 34.992H101.219C101.543 34.992 101.699 35.16 101.699 35.472V37.176C101.699 37.332 101.615 37.416 101.459 37.416H100.115V36.924C100.115 36.768 100.031 36.684 99.8748 36.684H98.7228C98.5668 36.684 98.4828 36.768 98.4828 36.924V37.32C98.4828 38.412 99.0708 39 100.163 39H101.555C102.683 39 103.295 38.4 103.295 37.272V35.064C103.295 34.62 102.971 34.284 102.539 34.212V34.188C102.971 34.116 103.295 33.78 103.295 33.336V31.128ZM104.495 38.76C104.495 38.916 104.579 39 104.735 39H105.035L104.555 40.056C104.519 40.14 104.555 40.2 104.651 40.2H105.191C105.263 40.2 105.299 40.176 105.335 40.116L105.983 39.132C106.043 39.036 106.067 38.952 106.067 38.832V37.656C106.067 37.5 105.983 37.416 105.827 37.416H104.735C104.579 37.416 104.495 37.5 104.495 37.656V38.76ZM108.801 35.292L107.349 38.724C107.277 38.892 107.349 39 107.529 39H108.777C108.921 39 109.005 38.94 109.053 38.82L110.757 34.764C110.841 34.548 110.877 34.392 110.877 34.164V31.08C110.877 29.988 110.289 29.4 109.197 29.4H107.757C106.665 29.4 106.077 29.988 106.077 31.08V33.612C106.077 34.704 106.665 35.292 107.757 35.292H108.801ZM108.813 30.984C109.125 30.984 109.293 31.152 109.293 31.464V33.228C109.293 33.54 109.125 33.708 108.813 33.708H108.141C107.829 33.708 107.661 33.54 107.661 33.228V31.464C107.661 31.152 107.829 30.984 108.141 30.984H108.813ZM112.077 37.272C112.077 38.4 112.677 39 113.805 39H115.149C116.277 39 116.877 38.4 116.877 37.272V31.128C116.877 30 116.277 29.4 115.149 29.4H113.805C112.677 29.4 112.077 30 112.077 31.128V37.272ZM114.153 37.452C113.841 37.452 113.673 37.296 113.673 36.972V31.428C113.673 31.116 113.841 30.948 114.153 30.948H114.849C115.161 30.948 115.329 31.116 115.329 31.428V36.972C115.329 37.296 115.161 37.452 114.849 37.452H114.153Z" fill="#9CAEB7"/>
<rect x="86" y="16" width="72" height="3" rx="1.5" fill="#263238"/>
<rect x="86" y="53" width="32" height="3" rx="1.5" fill="#263238"/>
<rect x="86" y="68" width="52" height="3" rx="1.5" fill="#BBC7CD"/>
<rect x="86" y="77" width="36" height="3" rx="1.5" fill="#BBC7CD"/>
<rect x="162" y="77" width="76" height="3" rx="1.5" fill="#BBC7CD"/>
<rect x="162" y="53" width="24" height="3" rx="1.5" fill="#263238"/>
<rect x="162" y="68" width="64" height="3" rx="1.5" fill="#BBC7CD"/>
<g filter="url(#filter0_d_1206_10311)">
<rect x="24" y="12" width="42" height="35" rx="3" fill="white"/>
</g>
<path fill-rule="evenodd" clip-rule="evenodd" d="M37.0435 28.0974L33 24.8112C33.1298 24.5182 33.258 24.222 33.3865 23.9249C34.8027 20.6514 36.2641 17.2733 40.5 17C41.2786 19.7646 48.7213 19.7646 49.5 17C53.7359 17.2733 55.1974 20.6515 56.6136 23.9251C56.7421 24.2221 56.8702 24.5183 57 24.8112L52.9565 28.0974L51.8479 27.1185V39.704C47.8802 41.4321 42.1199 41.4321 38.1521 39.704V27.1185L37.0435 28.0974ZM44.5602 26.2634L44.5602 26.2634H44.5015L41.9776 25.3474L41.6254 23.9161L43.7404 24.0834L44.208 23H44.8537V26.2634H44.5602ZM45.0885 23V26.2634H45.4406L45.4406 26.2634H45.4993L48.0232 25.3474L48.3754 23.9161L46.2018 24.0835L45.7341 23H45.0885ZM43.3277 26.4354L43.8559 26.3209L43.4451 26.8934V28.6682L42.0364 27.5232V25.5766L42.682 25.8056L43.3277 26.4354ZM46.6146 26.4354L46.0863 26.3209L46.4972 26.8934V28.6682L47.9059 27.5232V25.5766L47.2602 25.8056L46.6146 26.4354ZM44.0907 26.3207L43.6212 27.0078V29.5841L43.9733 30.0994L44.3842 30.5001H45.5581L45.969 30.0994L46.3212 29.5841V27.0078L45.8516 26.3207L45.5581 26.4925H44.3842L44.0907 26.3207ZM46.4972 29.7559L47.2603 29.0116V28.2673L46.4972 28.8971V29.7559ZM42.682 29.0116L43.445 29.7559V28.8971L42.682 28.2673V29.0116ZM47.5538 23.8015L46.3211 23.916L45.9103 23H46.732L47.5538 23.8015ZM43.6211 23.916L42.3885 23.8015L43.2102 23H44.032L43.6211 23.916Z" fill="#BBC7CD"/>
<mask id="mask0_1206_10311" style="mask-type:alpha" maskUnits="userSpaceOnUse" x="2" y="2" width="279" height="128">
<rect x="3" y="3" width="277" height="126" rx="1" fill="#ECEFF1" stroke="#BBC7CD" stroke-width="2"/>
</mask>
<g mask="url(#mask0_1206_10311)">
<path d="M91.208 118.592C91.34 118.592 91.4 118.52 91.4 118.4V117.128C91.4 116.036 90.836 115.436 89.768 115.4V114.692C89.768 114.572 89.696 114.5 89.576 114.5H88.412C88.28 114.5 88.22 114.572 88.22 114.692V115.4C87.176 115.436 86.6 116.036 86.6 117.128V119.96C86.6 120.188 86.708 120.332 86.924 120.404L89.768 121.34V122.936C89.768 123.26 89.6 123.416 89.288 123.416H88.712C88.412 123.416 88.232 123.26 88.232 122.936V122.012C88.232 121.88 88.172 121.82 88.04 121.82H86.792C86.672 121.82 86.6 121.88 86.6 122.012V123.272C86.6 124.364 87.176 124.964 88.22 125V125.708C88.22 125.828 88.28 125.9 88.412 125.9H89.576C89.696 125.9 89.768 125.828 89.768 125.708V125C90.836 124.964 91.4 124.364 91.4 123.272V120.5C91.4 120.272 91.292 120.14 91.088 120.056L88.232 119.12V117.464C88.232 117.152 88.412 116.984 88.712 116.984H89.288C89.612 116.984 89.768 117.152 89.768 117.464V118.4C89.768 118.52 89.84 118.592 89.96 118.592H91.208ZM92.828 115.7C92.672 115.712 92.6 115.796 92.6 115.952V117.104C92.6 117.26 92.696 117.344 92.852 117.32L93.596 117.224V124.808C93.596 124.928 93.656 125 93.788 125H95.036C95.156 125 95.228 124.928 95.228 124.808V115.592C95.228 115.472 95.156 115.4 95.036 115.4L92.828 115.7ZM96.5492 123.272C96.5492 124.4 97.1492 125 98.2772 125H99.6212C100.749 125 101.349 124.4 101.349 123.272V117.128C101.349 116 100.749 115.4 99.6212 115.4H98.2772C97.1492 115.4 96.5492 116 96.5492 117.128V123.272ZM98.6252 123.452C98.3132 123.452 98.1452 123.296 98.1452 122.972V117.428C98.1452 117.116 98.3132 116.948 98.6252 116.948H99.3212C99.6332 116.948 99.8012 117.116 99.8012 117.428V122.972C99.8012 123.296 99.6332 123.452 99.3212 123.452H98.6252ZM102.549 124.76C102.549 124.916 102.633 125 102.789 125H103.089L102.609 126.056C102.573 126.14 102.609 126.2 102.705 126.2H103.245C103.317 126.2 103.353 126.176 103.389 126.116L104.037 125.132C104.097 125.036 104.121 124.952 104.121 124.832V123.656C104.121 123.5 104.037 123.416 103.881 123.416H102.789C102.633 123.416 102.549 123.5 102.549 123.656V124.76ZM105.327 123.272C105.327 124.4 105.927 125 107.055 125H108.399C109.527 125 110.127 124.4 110.127 123.272V117.128C110.127 116 109.527 115.4 108.399 115.4H107.055C105.927 115.4 105.327 116 105.327 117.128V123.272ZM107.403 123.452C107.091 123.452 106.923 123.296 106.923 122.972V117.428C106.923 117.116 107.091 116.948 107.403 116.948H108.099C108.411 116.948 108.579 117.116 108.579 117.428V122.972C108.579 123.296 108.411 123.452 108.099 123.452H107.403ZM111.327 123.272C111.327 124.4 111.927 125 113.055 125H114.399C115.527 125 116.127 124.4 116.127 123.272V117.128C116.127 116 115.527 115.4 114.399 115.4H113.055C111.927 115.4 111.327 116 111.327 117.128V123.272ZM113.403 123.452C113.091 123.452 112.923 123.296 112.923 122.972V117.428C112.923 117.116 113.091 116.948 113.403 116.948H114.099C114.411 116.948 114.579 117.116 114.579 117.428V122.972C114.579 123.296 114.411 123.452 114.099 123.452H113.403Z" fill="#9CAEB7"/>
<rect x="86" y="102" width="72" height="3" rx="1.5" fill="#263238"/>
<g filter="url(#filter1_d_1206_10311)">
<rect x="24" y="98" width="42" height="35" rx="3" fill="white"/>
</g>
<path fill-rule="evenodd" clip-rule="evenodd" d="M37.0435 114.097L33 110.811C33.1298 110.518 33.258 110.222 33.3865 109.925C34.8027 106.651 36.2641 103.273 40.5 103C41.2786 105.765 48.7213 105.765 49.5 103C53.7359 103.273 55.1974 106.651 56.6136 109.925C56.7421 110.222 56.8702 110.518 57 110.811L52.9565 114.097L51.8479 113.119V125.704C47.8802 127.432 42.1199 127.432 38.1521 125.704V113.119L37.0435 114.097ZM44.5602 112.263L44.5602 112.263H44.5015L41.9776 111.347L41.6254 109.916L43.7404 110.083L44.208 109H44.8537V112.263H44.5602ZM45.0885 109V112.263H45.4406L45.4406 112.263H45.4993L48.0232 111.347L48.3754 109.916L46.2018 110.083L45.7341 109H45.0885ZM43.3277 112.435L43.8559 112.321L43.4451 112.893V114.668L42.0364 113.523V111.577L42.682 111.806L43.3277 112.435ZM46.6146 112.435L46.0863 112.321L46.4972 112.893V114.668L47.9059 113.523V111.577L47.2602 111.806L46.6146 112.435ZM44.0907 112.321L43.6212 113.008V115.584L43.9733 116.099L44.3842 116.5H45.5581L45.969 116.099L46.3212 115.584V113.008L45.8516 112.321L45.5581 112.492H44.3842L44.0907 112.321ZM46.4972 115.756L47.2603 115.012V114.267L46.4972 114.897V115.756ZM42.682 115.012L43.445 115.756V114.897L42.682 114.267V115.012ZM47.5538 109.802L46.3211 109.916L45.9103 109H46.732L47.5538 109.802ZM43.6211 109.916L42.3885 109.802L43.2102 109H44.032L43.6211 109.916Z" fill="#BBC7CD"/>
<rect x="2" y="2" width="279" height="128" rx="2" fill="url(#paint0_linear_1206_10311)"/>
</g>
<defs>
<filter id="filter0_d_1206_10311" x="22" y="12" width="46" height="39" filterUnits="userSpaceOnUse" color-interpolation-filters="sRGB">
<feFlood flood-opacity="0" result="BackgroundImageFix"/>
<feColorMatrix in="SourceAlpha" type="matrix" values="0 0 0 0 0 0 0 0 0 0 0 0 0 0 0 0 0 0 127 0" result="hardAlpha"/>
<feOffset dy="2"/>
<feGaussianBlur stdDeviation="1"/>
<feColorMatrix type="matrix" values="0 0 0 0 0 0 0 0 0 0 0 0 0 0 0 0 0 0 0.03 0"/>
<feBlend mode="normal" in2="BackgroundImageFix" result="effect1_dropShadow_1206_10311"/>
<feBlend mode="normal" in="SourceGraphic" in2="effect1_dropShadow_1206_10311" result="shape"/>
</filter>
<filter id="filter1_d_1206_10311" x="22" y="98" width="46" height="39" filterUnits="userSpaceOnUse" color-interpolation-filters="sRGB">
<feFlood flood-opacity="0" result="BackgroundImageFix"/>
<feColorMatrix in="SourceAlpha" type="matrix" values="0 0 0 0 0 0 0 0 0 0 0 0 0 0 0 0 0 0 127 0" result="hardAlpha"/>
<feOffset dy="2"/>
<feGaussianBlur stdDeviation="1"/>
<feColorMatrix type="matrix" values="0 0 0 0 0 0 0 0 0 0 0 0 0 0 0 0 0 0 0.03 0"/>
<feBlend mode="normal" in2="BackgroundImageFix" result="effect1_dropShadow_1206_10311"/>
<feBlend mode="normal" in="SourceGraphic" in2="effect1_dropShadow_1206_10311" result="shape"/>
</filter>
<linearGradient id="paint0_linear_1206_10311" x1="141.993" y1="74.3053" x2="141.509" y2="130" gradientUnits="userSpaceOnUse">
<stop stop-color="#ECEFF1" stop-opacity="0"/>
<stop offset="1" stop-color="#ECEFF1"/>
</linearGradient>
</defs>
</svg>
