<svg width="283" height="132" viewBox="0 0 283 132" fill="none" xmlns="http://www.w3.org/2000/svg">
<g clip-path="url(#clip0_2274_23320)">
<rect width="283" height="132" rx="4" fill="white" fill-opacity="0.15"/>
<rect x="1" y="1" width="281" height="130" rx="3" stroke="#BBC7CD" stroke-opacity="0.5" stroke-width="2"/>
<rect x="114" y="31" width="69" height="3" rx="1.5" fill="#BBC7CD"/>
<rect x="118" y="46" width="10" height="10" rx="5" fill="#BBC7CD"/>
<rect x="118" y="71" width="20" height="3" rx="1.5" fill="#BBC7CD"/>
<rect x="118" y="62" width="32" height="3" rx="1.5" fill="#BBC7CD"/>
<rect x="169" y="46" width="10" height="10" rx="5" fill="#BBC7CD"/>
<rect x="169" y="71" width="30" height="3" rx="1.5" fill="#BBC7CD"/>
<rect x="169" y="62" width="24" height="3" rx="1.5" fill="#BBC7CD"/>
<rect x="220" y="46" width="10" height="10" rx="5" fill="#BBC7CD"/>
<rect x="220" y="71" width="24" height="3" rx="1.5" fill="#BBC7CD"/>
<rect x="220" y="62" width="28" height="3" rx="1.5" fill="#BBC7CD"/>
<rect x="118" y="86" width="10" height="10" rx="5" fill="#BBC7CD"/>
<rect x="118" y="111" width="27" height="3" rx="1.5" fill="#BBC7CD"/>
<rect x="118" y="102" width="35" height="3" rx="1.5" fill="#BBC7CD"/>
<rect x="169" y="86" width="10" height="10" rx="5" fill="#BBC7CD"/>
<rect x="169" y="111" width="24" height="3" rx="1.5" fill="#BBC7CD"/>
<rect x="169" y="102" width="35" height="3" rx="1.5" fill="#BBC7CD"/>
<rect x="220" y="86" width="10" height="10" rx="5" fill="#BBC7CD"/>
<rect x="220" y="111" width="28" height="3" rx="1.5" fill="#BBC7CD"/>
<rect x="220" y="102" width="35" height="3" rx="1.5" fill="#BBC7CD"/>
<rect x="114" y="20" width="105" height="3" rx="1.5" fill="white"/>
<mask id="mask0_2274_23320" style="mask-type:alpha" maskUnits="userSpaceOnUse" x="2" y="2" width="96" height="128">
<path d="M2 4C2 2.89543 2.89543 2 4 2H98V130H4C2.89543 130 2 129.105 2 128V4Z" fill="#BBC7CD"/>
</mask>
<g mask="url(#mask0_2274_23320)">
<g filter="url(#filter0_d_2274_23320)">
<path d="M2 4C2 2.89543 2.89543 2 4 2H98V130H4C2.89543 130 2 129.105 2 128V4Z" fill="#263238"/>
</g>
<path d="M97.5 2.5L3 129" stroke="#435861" stroke-width="3" stroke-linecap="round"/>
<path d="M3 3L97.5 129.5" stroke="#435861" stroke-width="3" stroke-linecap="round"/>
</g>
</g>
<defs>
<filter id="filter0_d_2274_23320" x="0" y="2" width="100" height="132" filterUnits="userSpaceOnUse" color-interpolation-filters="sRGB">
<feFlood flood-opacity="0" result="BackgroundImageFix"/>
<feColorMatrix in="SourceAlpha" type="matrix" values="0 0 0 0 0 0 0 0 0 0 0 0 0 0 0 0 0 0 127 0" result="hardAlpha"/>
<feOffset dy="2"/>
<feGaussianBlur stdDeviation="1"/>
<feColorMatrix type="matrix" values="0 0 0 0 0 0 0 0 0 0 0 0 0 0 0 0 0 0 0.03 0"/>
<feBlend mode="normal" in2="BackgroundImageFix" result="effect1_dropShadow_2274_23320"/>
<feBlend mode="normal" in="SourceGraphic" in2="effect1_dropShadow_2274_23320" result="shape"/>
</filter>
<clipPath id="clip0_2274_23320">
<rect width="283" height="132" fill="white"/>
</clipPath>
</defs>
</svg>
