<svg width="283" height="132" viewBox="0 0 283 132" fill="none" xmlns="http://www.w3.org/2000/svg">
<rect x="1" y="1" width="281" height="130" rx="3" fill="#F5F7F8" stroke="#BBC7CD" stroke-width="2"/>
<rect x="219" y="64" width="40" height="10" rx="5" fill="#263238"/>
<rect x="229" y="68" width="20" height="2" rx="1" fill="#BBC7CD"/>
<path d="M168.208 67.592C168.34 67.592 168.4 67.52 168.4 67.4V66.128C168.4 65.036 167.836 64.436 166.768 64.4V63.692C166.768 63.572 166.696 63.5 166.576 63.5H165.412C165.28 63.5 165.22 63.572 165.22 63.692V64.4C164.176 64.436 163.6 65.036 163.6 66.128V68.96C163.6 69.188 163.708 69.332 163.924 69.404L166.768 70.34V71.936C166.768 72.26 166.6 72.416 166.288 72.416H165.712C165.412 72.416 165.232 72.26 165.232 71.936V71.012C165.232 70.88 165.172 70.82 165.04 70.82H163.792C163.672 70.82 163.6 70.88 163.6 71.012V72.272C163.6 73.364 164.176 73.964 165.22 74V74.708C165.22 74.828 165.28 74.9 165.412 74.9H166.576C166.696 74.9 166.768 74.828 166.768 74.708V74C167.836 73.964 168.4 73.364 168.4 72.272V69.5C168.4 69.272 168.292 69.14 168.088 69.056L165.232 68.12V66.464C165.232 66.152 165.412 65.984 165.712 65.984H166.288C166.612 65.984 166.768 66.152 166.768 66.464V67.4C166.768 67.52 166.84 67.592 166.96 67.592H168.208ZM169.828 64.7C169.672 64.712 169.6 64.796 169.6 64.952V66.104C169.6 66.26 169.696 66.344 169.852 66.32L170.596 66.224V73.808C170.596 73.928 170.656 74 170.788 74H172.036C172.156 74 172.228 73.928 172.228 73.808V64.592C172.228 64.472 172.156 64.4 172.036 64.4L169.828 64.7ZM173.549 72.272C173.549 73.4 174.149 74 175.277 74H176.621C177.749 74 178.349 73.4 178.349 72.272V66.128C178.349 65 177.749 64.4 176.621 64.4H175.277C174.149 64.4 173.549 65 173.549 66.128V72.272ZM175.625 72.452C175.313 72.452 175.145 72.296 175.145 71.972V66.428C175.145 66.116 175.313 65.948 175.625 65.948H176.321C176.633 65.948 176.801 66.116 176.801 66.428V71.972C176.801 72.296 176.633 72.452 176.321 72.452H175.625ZM179.549 73.76C179.549 73.916 179.633 74 179.789 74H180.089L179.609 75.056C179.573 75.14 179.609 75.2 179.705 75.2H180.245C180.317 75.2 180.353 75.176 180.389 75.116L181.037 74.132C181.097 74.036 181.121 73.952 181.121 73.832V72.656C181.121 72.5 181.037 72.416 180.881 72.416H179.789C179.633 72.416 179.549 72.5 179.549 72.656V73.76ZM182.327 72.272C182.327 73.4 182.927 74 184.055 74H185.399C186.527 74 187.127 73.4 187.127 72.272V66.128C187.127 65 186.527 64.4 185.399 64.4H184.055C182.927 64.4 182.327 65 182.327 66.128V72.272ZM184.403 72.452C184.091 72.452 183.923 72.296 183.923 71.972V66.428C183.923 66.116 184.091 65.948 184.403 65.948H185.099C185.411 65.948 185.579 66.116 185.579 66.428V71.972C185.579 72.296 185.411 72.452 185.099 72.452H184.403ZM188.327 72.272C188.327 73.4 188.927 74 190.055 74H191.399C192.527 74 193.127 73.4 193.127 72.272V66.128C193.127 65 192.527 64.4 191.399 64.4H190.055C188.927 64.4 188.327 65 188.327 66.128V72.272ZM190.403 72.452C190.091 72.452 189.923 72.296 189.923 71.972V66.428C189.923 66.116 190.091 65.948 190.403 65.948H191.099C191.411 65.948 191.579 66.116 191.579 66.428V71.972C191.579 72.296 191.411 72.452 191.099 72.452H190.403Z" fill="#9CAEB7"/>
<rect x="66" y="68" width="61" height="3" rx="1.5" fill="#BBC7CD"/>
<rect x="24" y="57" width="24" height="24" rx="4" fill="white"/>
<path fill-rule="evenodd" clip-rule="evenodd" d="M39.79 72.6197V71.122C41.56 71.122 43 69.5412 43 67.561C43 65.5808 41.56 64 39.79 64H31.2C31.0895 64 31 64.0895 31 64.2V72.6197C31 73.668 32 74.5 32.93 74.5H38.095C39.04 74.5 39.79 73.6513 39.79 72.6197ZM39.79 69.9905V65.1149C41.005 65.1149 41.98 66.2298 41.98 67.561C41.98 68.8922 41.005 69.9905 39.79 69.9905ZM35.0869 69.0617L35.087 69.0618H35.0452L33.2504 68.4206L33 67.4187L34.504 67.5357L34.8365 66.7773H35.2956V69.0617H35.0869ZM35.4626 66.7773V69.0617H35.713L35.713 69.0618H35.7548L37.5495 68.4206L37.8 67.4187L36.2544 67.5358L35.9218 66.7773H35.4626ZM34.2105 69.182L34.5861 69.1019L34.2939 69.5026V70.745L33.2922 69.9435V68.5809L33.7513 68.7412L34.2105 69.182ZM36.5479 69.182L36.1722 69.1019L36.4644 69.5026V70.745L37.4661 69.9435V68.5809L37.007 68.7412L36.5479 69.182ZM34.753 69.1018L34.4191 69.5827V71.3861L34.6696 71.7468L34.9617 72.0273H35.7965L36.0887 71.7468L36.3391 71.3861V69.5827L36.0052 69.1018L35.7965 69.222H34.9617L34.753 69.1018ZM36.4644 71.5065L37.007 70.9855V70.4645L36.4644 70.9053V71.5065ZM33.7513 70.9855L34.2939 71.5065V70.9053L33.7513 70.4645V70.9855ZM37.2157 67.3384L36.3391 67.4186L36.047 66.7773H36.6313L37.2157 67.3384ZM34.4192 67.4186L33.5426 67.3384L34.127 66.7773H34.7113L34.4192 67.4186Z" fill="#BBC7CD"/>
<rect x="219" y="96" width="40" height="10" rx="5" fill="#263238"/>
<rect x="229" y="100" width="20" height="2" rx="1" fill="#BBC7CD"/>
<path d="M168.208 99.592C168.34 99.592 168.4 99.52 168.4 99.4V98.128C168.4 97.036 167.836 96.436 166.768 96.4V95.692C166.768 95.572 166.696 95.5 166.576 95.5H165.412C165.28 95.5 165.22 95.572 165.22 95.692V96.4C164.176 96.436 163.6 97.036 163.6 98.128V100.96C163.6 101.188 163.708 101.332 163.924 101.404L166.768 102.34V103.936C166.768 104.26 166.6 104.416 166.288 104.416H165.712C165.412 104.416 165.232 104.26 165.232 103.936V103.012C165.232 102.88 165.172 102.82 165.04 102.82H163.792C163.672 102.82 163.6 102.88 163.6 103.012V104.272C163.6 105.364 164.176 105.964 165.22 106V106.708C165.22 106.828 165.28 106.9 165.412 106.9H166.576C166.696 106.9 166.768 106.828 166.768 106.708V106C167.836 105.964 168.4 105.364 168.4 104.272V101.5C168.4 101.272 168.292 101.14 168.088 101.056L165.232 100.12V98.464C165.232 98.152 165.412 97.984 165.712 97.984H166.288C166.612 97.984 166.768 98.152 166.768 98.464V99.4C166.768 99.52 166.84 99.592 166.96 99.592H168.208ZM174.076 101.404C174.304 101.284 174.4 101.188 174.4 100.96V98.128C174.4 97 173.788 96.4 172.672 96.4H171.328C170.2 96.4 169.6 97 169.6 98.128V99.4C169.6 99.52 169.66 99.592 169.792 99.592H171.04C171.16 99.592 171.232 99.52 171.232 99.4V98.464C171.232 98.152 171.388 97.984 171.712 97.984H172.288C172.588 97.984 172.768 98.152 172.768 98.464V100.24L169.912 101.776C169.684 101.896 169.6 101.992 169.6 102.22V105.76C169.6 105.916 169.684 106 169.84 106H174.16C174.316 106 174.4 105.916 174.4 105.76V103.924C174.4 103.768 174.316 103.684 174.16 103.684H173.008C172.852 103.684 172.768 103.768 172.768 103.924V104.416H171.472C171.316 104.416 171.232 104.332 171.232 104.176V103.132C171.232 103 171.28 102.916 171.4 102.844L174.076 101.404ZM180.295 98.128C180.295 97 179.683 96.4 178.555 96.4H177.163C176.071 96.4 175.483 96.952 175.483 97.984V98.476C175.483 98.632 175.567 98.716 175.723 98.716H176.875C177.031 98.716 177.115 98.632 177.115 98.476V97.984H178.459C178.615 97.984 178.699 98.068 178.699 98.224V99.94C178.699 100.24 178.531 100.408 178.219 100.408H176.803C176.647 100.408 176.563 100.492 176.563 100.648V101.752C176.563 101.908 176.647 101.992 176.803 101.992H178.219C178.543 101.992 178.699 102.16 178.699 102.472V104.176C178.699 104.332 178.615 104.416 178.459 104.416H177.115V103.924C177.115 103.768 177.031 103.684 176.875 103.684H175.723C175.567 103.684 175.483 103.768 175.483 103.924V104.32C175.483 105.412 176.071 106 177.163 106H178.555C179.683 106 180.295 105.4 180.295 104.272V102.064C180.295 101.62 179.971 101.284 179.539 101.212V101.188C179.971 101.116 180.295 100.78 180.295 100.336V98.128ZM181.495 105.76C181.495 105.916 181.579 106 181.735 106H182.035L181.555 107.056C181.519 107.14 181.555 107.2 181.651 107.2H182.191C182.263 107.2 182.299 107.176 182.335 107.116L182.983 106.132C183.043 106.036 183.067 105.952 183.067 105.832V104.656C183.067 104.5 182.983 104.416 182.827 104.416H181.735C181.579 104.416 181.495 104.5 181.495 104.656V105.76ZM185.801 102.292L184.349 105.724C184.277 105.892 184.349 106 184.529 106H185.777C185.921 106 186.005 105.94 186.053 105.82L187.757 101.764C187.841 101.548 187.877 101.392 187.877 101.164V98.08C187.877 96.988 187.289 96.4 186.197 96.4H184.757C183.665 96.4 183.077 96.988 183.077 98.08V100.612C183.077 101.704 183.665 102.292 184.757 102.292H185.801ZM185.813 97.984C186.125 97.984 186.293 98.152 186.293 98.464V100.228C186.293 100.54 186.125 100.708 185.813 100.708H185.141C184.829 100.708 184.661 100.54 184.661 100.228V98.464C184.661 98.152 184.829 97.984 185.141 97.984H185.813ZM189.077 104.272C189.077 105.4 189.677 106 190.805 106H192.149C193.277 106 193.877 105.4 193.877 104.272V98.128C193.877 97 193.277 96.4 192.149 96.4H190.805C189.677 96.4 189.077 97 189.077 98.128V104.272ZM191.153 104.452C190.841 104.452 190.673 104.296 190.673 103.972V98.428C190.673 98.116 190.841 97.948 191.153 97.948H191.849C192.161 97.948 192.329 98.116 192.329 98.428V103.972C192.329 104.296 192.161 104.452 191.849 104.452H191.153Z" fill="#9CAEB7"/>
<rect x="66" y="100" width="61" height="3" rx="1.5" fill="#BBC7CD"/>
<rect x="24" y="89" width="24" height="24" rx="4" fill="white"/>
<path fill-rule="evenodd" clip-rule="evenodd" d="M30.6957 100.398L28 98.2075C28.0865 98.0121 28.172 97.8147 28.2577 97.6166C29.2018 95.4342 30.176 93.1822 33 93C33.5191 94.8431 38.4809 94.8431 39 93C41.8239 93.1822 42.7982 95.4343 43.7424 97.6167C43.828 97.8147 43.9135 98.0122 44 98.2075L41.3043 100.398L40.5652 99.7457V108.136C37.9201 109.288 34.0799 109.288 31.4347 108.136V99.7457L30.6957 100.398ZM35.6676 99.1756L33.985 98.5649L33.7503 97.6107L35.1603 97.7222L35.472 97H35.9024V99.1756H35.6677L35.6676 99.1756ZM36.059 97V99.1756H36.3329L36.3329 99.1756H36.3329L38.0155 98.5649L38.2503 97.6107L36.8012 97.7223L36.4894 97H36.059ZM34.8851 99.2902L35.2372 99.2139L34.9633 99.5956V100.779L34.0242 100.015V98.7177L34.4546 98.8704L34.8851 99.2902ZM37.0764 99.2902L36.7242 99.2139L36.9981 99.5956V100.779L37.9372 100.015V98.7177L37.5068 98.8704L37.0764 99.2902ZM35.3937 99.2138L35.0807 99.6718V101.389L35.3155 101.733L35.5894 102H36.372L36.6459 101.733L36.8807 101.389V99.6718L36.5677 99.2138L36.372 99.3283H35.5894L35.3937 99.2138ZM36.9981 101.504L37.5068 101.008V100.511L36.9981 100.931V101.504ZM34.4546 101.008L34.9633 101.504V100.931L34.4546 100.511V101.008ZM37.7025 97.5344L36.8807 97.6107L36.6068 97H37.1546L37.7025 97.5344ZM35.0807 97.6107L34.259 97.5344L34.8068 97H35.3546L35.0807 97.6107Z" fill="#BBC7CD"/>
<rect x="24" y="33" width="235" height="16" rx="4" fill="#BBC7CD"/>
<rect x="24" y="18" width="36" height="3" rx="1.5" fill="#263238"/>
</svg>
