<svg width="283" height="132" viewBox="0 0 283 132" fill="none" xmlns="http://www.w3.org/2000/svg">
<rect width="283" height="132" rx="4" fill="white" fill-opacity="0.15"/>
<rect x="1" y="1" width="281" height="130" rx="3" stroke="#BBC7CD" stroke-opacity="0.5" stroke-width="2"/>
<g filter="url(#filter0_d_2274_24073)">
<rect x="24" y="52" width="235" height="30" rx="3" fill="#212121"/>
</g>
<rect x="68" y="60" width="46" height="3" rx="1.5" fill="#BBC7CD"/>
<rect x="68" y="69" width="26" height="3" rx="1.5" fill="#BBC7CD"/>
<rect x="158" y="69" width="16" height="3" rx="1.5" fill="#BBC7CD"/>
<rect x="211" y="69" width="27" height="3" rx="1.5" fill="#BBC7CD"/>
<rect x="157" y="60" width="21" height="3" rx="1.5" fill="#BBC7CD"/>
<rect x="210" y="60" width="33" height="3" rx="1.5" fill="#BBC7CD"/>
<path fill-rule="evenodd" clip-rule="evenodd" d="M51.185 72.1347V69.8526C53.84 69.8526 56 67.4437 56 64.4263C56 61.4089 53.84 59 51.185 59H38.2C38.0895 59 38 59.0895 38 59.2V72.1347C38 73.7322 39.5 75 40.895 75H48.6425C50.06 75 51.185 73.7068 51.185 72.1347ZM51.185 68.1284V60.6989C53.0075 60.6989 54.47 62.3978 54.47 64.4263C54.47 66.4548 53.0075 68.1284 51.185 68.1284ZM44.0677 66.7128L41.3756 65.7357L41 64.209L43.2561 64.3874L43.7547 63.2322H44.4435V66.7131H44.0678L44.0677 66.7128ZM44.6939 63.2322V66.7131H45.1321L45.1323 66.7127L47.8241 65.7357L48.1998 64.209L45.8813 64.3875L45.3826 63.2322H44.6939ZM42.8156 66.8965L43.3791 66.7744L42.9408 67.385V69.2782L41.4382 68.0568V65.9805L42.1269 66.2247L42.8156 66.8965ZM46.3217 66.8965L45.7582 66.7744L46.1964 67.385V69.2782L47.6991 68.0568V65.9805L47.0104 66.2247L46.3217 66.8965ZM43.6295 66.7739L43.1287 67.5068V70.2548L43.5043 70.8045L43.9426 71.2319H45.1947L45.633 70.8045L46.0087 70.2548V67.5068L45.5078 66.7739L45.1947 66.9571H43.9426L43.6295 66.7739ZM46.1965 70.4381L47.0105 69.6442V68.8503L46.1965 69.5221V70.4381ZM42.1269 69.6442L42.9408 70.4381V69.5221L42.1269 68.8503V69.6442ZM47.3234 64.0871L46.0086 64.2093L45.5704 63.2322H46.4469L47.3234 64.0871ZM43.1286 64.2093L41.8139 64.0871L42.6904 63.2322H43.5669L43.1286 64.2093Z" fill="#BBC7CD"/>
<g filter="url(#filter1_d_2274_24073)">
<rect x="24" y="90" width="235" height="30" rx="3" fill="#212121"/>
</g>
<rect x="68" y="98" width="34" height="3" rx="1.5" fill="#BBC7CD"/>
<rect x="68" y="107" width="19" height="3" rx="1.5" fill="#BBC7CD"/>
<rect x="158" y="107" width="20" height="3" rx="1.5" fill="#BBC7CD"/>
<rect x="211" y="107" width="16" height="3" rx="1.5" fill="#BBC7CD"/>
<rect x="157" y="98" width="25" height="3" rx="1.5" fill="#BBC7CD"/>
<rect x="210" y="98" width="28" height="3" rx="1.5" fill="#BBC7CD"/>
<path fill-rule="evenodd" clip-rule="evenodd" d="M51.185 110.135V107.853C53.84 107.853 56 105.444 56 102.426C56 99.4089 53.84 97 51.185 97H38.2C38.0895 97 38 97.0895 38 97.2V110.135C38 111.732 39.5 113 40.895 113H48.6425C50.06 113 51.185 111.707 51.185 110.135ZM51.185 106.128V98.6989C53.0075 98.6989 54.47 100.398 54.47 102.426C54.47 104.455 53.0075 106.128 51.185 106.128ZM44.0677 104.713L41.3756 103.736L41 102.209L43.2561 102.387L43.7547 101.232H44.4435V104.713H44.0678L44.0677 104.713ZM44.6939 101.232V104.713H45.1321L45.1323 104.713L47.8241 103.736L48.1998 102.209L45.8813 102.388L45.3826 101.232H44.6939ZM42.8156 104.896L43.3791 104.774L42.9408 105.385V107.278L41.4382 106.057V103.98L42.1269 104.225L42.8156 104.896ZM46.3217 104.896L45.7582 104.774L46.1964 105.385V107.278L47.6991 106.057V103.98L47.0104 104.225L46.3217 104.896ZM43.6295 104.774L43.1287 105.507V108.255L43.5043 108.804L43.9426 109.232H45.1947L45.633 108.804L46.0087 108.255V105.507L45.5078 104.774L45.1947 104.957H43.9426L43.6295 104.774ZM46.1965 108.438L47.0105 107.644V106.85L46.1965 107.522V108.438ZM42.1269 107.644L42.9408 108.438V107.522L42.1269 106.85V107.644ZM47.3234 102.087L46.0086 102.209L45.5704 101.232H46.4469L47.3234 102.087ZM43.1286 102.209L41.8139 102.087L42.6904 101.232H43.5669L43.1286 102.209Z" fill="#BBC7CD"/>
<rect x="24" y="41" width="42" height="3" rx="1.5" fill="white"/>
<rect x="2" y="2" width="279" height="27" fill="#212121"/>
<rect x="106" y="14" width="16" height="3" rx="1.5" fill="#BBC7CD"/>
<rect x="134" y="14" width="16" height="3" rx="1.5" fill="#BBC7CD"/>
<rect x="162" y="14" width="16" height="3" rx="1.5" fill="#BBC7CD"/>
<circle cx="32" cy="16" r="6" fill="#607D8B"/>
<defs>
<filter id="filter0_d_2274_24073" x="22" y="52" width="239" height="34" filterUnits="userSpaceOnUse" color-interpolation-filters="sRGB">
<feFlood flood-opacity="0" result="BackgroundImageFix"/>
<feColorMatrix in="SourceAlpha" type="matrix" values="0 0 0 0 0 0 0 0 0 0 0 0 0 0 0 0 0 0 127 0" result="hardAlpha"/>
<feOffset dy="2"/>
<feGaussianBlur stdDeviation="1"/>
<feColorMatrix type="matrix" values="0 0 0 0 0 0 0 0 0 0 0 0 0 0 0 0 0 0 0.03 0"/>
<feBlend mode="normal" in2="BackgroundImageFix" result="effect1_dropShadow_2274_24073"/>
<feBlend mode="normal" in="SourceGraphic" in2="effect1_dropShadow_2274_24073" result="shape"/>
</filter>
<filter id="filter1_d_2274_24073" x="22" y="90" width="239" height="34" filterUnits="userSpaceOnUse" color-interpolation-filters="sRGB">
<feFlood flood-opacity="0" result="BackgroundImageFix"/>
<feColorMatrix in="SourceAlpha" type="matrix" values="0 0 0 0 0 0 0 0 0 0 0 0 0 0 0 0 0 0 127 0" result="hardAlpha"/>
<feOffset dy="2"/>
<feGaussianBlur stdDeviation="1"/>
<feColorMatrix type="matrix" values="0 0 0 0 0 0 0 0 0 0 0 0 0 0 0 0 0 0 0.03 0"/>
<feBlend mode="normal" in2="BackgroundImageFix" result="effect1_dropShadow_2274_24073"/>
<feBlend mode="normal" in="SourceGraphic" in2="effect1_dropShadow_2274_24073" result="shape"/>
</filter>
</defs>
</svg>
